<svg width="20" height="20" viewBox="0 0 20 20" fill="none" xmlns="http://www.w3.org/2000/svg">
<path d="M5.83333 9.99992C5.83333 10.4419 5.65774 10.8659 5.34518 11.1784C5.03262 11.491 4.60869 11.6666 4.16667 11.6666C3.72464 11.6666 3.30072 11.491 2.98816 11.1784C2.67559 10.8659 2.5 10.4419 2.5 9.99992C2.5 9.55789 2.67559 9.13397 2.98816 8.82141C3.30072 8.50885 3.72464 8.33325 4.16667 8.33325C4.60869 8.33325 5.03262 8.50885 5.34518 8.82141C5.65774 9.13397 5.83333 9.55789 5.83333 9.99992ZM11.6667 9.99992C11.6667 10.4419 11.4911 10.8659 11.1785 11.1784C10.866 11.491 10.442 11.6666 10 11.6666C9.55797 11.6666 9.13405 11.491 8.82149 11.1784C8.50893 10.8659 8.33333 10.4419 8.33333 9.99992C8.33333 9.55789 8.50893 9.13397 8.82149 8.82141C9.13405 8.50885 9.55797 8.33325 10 8.33325C10.442 8.33325 10.866 8.50885 11.1785 8.82141C11.4911 9.13397 11.6667 9.55789 11.6667 9.99992ZM17.5 9.99992C17.5 10.4419 17.3244 10.8659 17.0118 11.1784C16.6993 11.491 16.2754 11.6666 15.8333 11.6666C15.3913 11.6666 14.9674 11.491 14.6548 11.1784C14.3423 10.8659 14.1667 10.4419 14.1667 9.99992C14.1667 9.55789 14.3423 9.13397 14.6548 8.82141C14.9674 8.50885 15.3913 8.33325 15.8333 8.33325C16.2754 8.33325 16.6993 8.50885 17.0118 8.82141C17.3244 9.13397 17.5 9.55789 17.5 9.99992Z" fill="#4E37FB"/>
</svg>
