<svg width="138" height="76" viewBox="0 0 138 76" fill="none" xmlns="http://www.w3.org/2000/svg">
<rect width="138" height="76" rx="4" fill="#FAF9FF"/>
<path d="M91.5154 55.829V33.086C92.48 33.0513 93.4076 32.7052 94.1592 32.0995C94.9109 31.4939 95.4463 30.6612 95.6854 29.726C95.9522 28.7721 95.8901 27.7562 95.5091 26.8419C95.1282 25.9276 94.4505 25.1682 93.5854 24.686L71.2354 11.786C70.5529 11.4022 69.7832 11.2007 69.0004 11.2007C68.2175 11.2007 67.4478 11.4022 66.7654 11.786L44.4154 24.686C43.5502 25.1682 42.8725 25.9276 42.4916 26.8419C42.1106 27.7562 42.0485 28.7721 42.3154 29.726C42.5626 30.6905 43.1248 31.5449 43.9129 32.1536C44.7009 32.7623 45.6696 33.0904 46.6654 33.086H47.0554V55.796H46.6954C45.5019 55.796 44.3573 56.2701 43.5134 57.114C42.6695 57.9579 42.1954 59.1025 42.1954 60.296C42.1954 61.4894 42.6695 62.634 43.5134 63.4779C44.3573 64.3219 45.5019 64.796 46.6954 64.796H91.3054C92.4327 64.7294 93.4939 64.2413 94.2781 63.4287C95.0624 62.616 95.5124 61.5382 95.5388 60.4091C95.5653 59.2801 95.1662 58.1824 94.4209 57.3339C93.6755 56.4855 92.6384 55.9483 91.5154 55.829ZM46.6654 30.086C46.3347 30.0817 46.0145 29.9695 45.7537 29.7662C45.4928 29.563 45.3056 29.28 45.2206 28.9605C45.1356 28.6409 45.1575 28.3023 45.2829 27.9964C45.4084 27.6904 45.6305 27.4339 45.9154 27.266L68.2654 14.399C68.4867 14.2638 68.741 14.1922 69.0004 14.1922C69.2597 14.1922 69.514 14.2638 69.7354 14.399L92.1004 27.266C92.3973 27.426 92.6316 27.6813 92.7655 27.9909C92.8994 28.3004 92.9251 28.6461 92.8384 28.972C92.7517 29.2979 92.5577 29.5851 92.2877 29.7873C92.0177 29.9894 91.6875 30.0946 91.3504 30.086H46.6654ZM88.5154 33.086V55.796H77.7004V33.086H88.5154ZM74.6854 33.086V55.796H63.8554V33.086H74.6854ZM60.8554 33.086V55.796H50.0554V33.086H60.8554ZM91.3054 61.796H46.6954C46.2975 61.796 45.916 61.6379 45.6347 61.3566C45.3534 61.0753 45.1954 60.6938 45.1954 60.296C45.1954 59.8981 45.3534 59.5166 45.6347 59.2353C45.916 58.954 46.2975 58.796 46.6954 58.796H91.3054C91.7032 58.796 92.0847 58.954 92.366 59.2353C92.6473 59.5166 92.8054 59.8981 92.8054 60.296C92.8054 60.6938 92.6473 61.0753 92.366 61.3566C92.0847 61.6379 91.7032 61.796 91.3054 61.796Z" fill="#4E37FB"/>
</svg>
