<svg width="20" height="20" viewBox="0 0 20 20" fill="none" xmlns="http://www.w3.org/2000/svg">
<path d="M15.8333 8.75008V8.33341C15.8333 5.19091 15.8333 3.61925 14.8567 2.64341C13.88 1.66758 12.3092 1.66675 9.16667 1.66675C6.02417 1.66675 4.4525 1.66675 3.47667 2.64341C2.50083 3.62008 2.5 5.19091 2.5 8.33341V12.0834C2.5 14.8226 2.5 16.1926 3.25667 17.1151C3.39556 17.284 3.54944 17.4379 3.71833 17.5767C4.64167 18.3334 6.01 18.3334 8.75 18.3334M5.83333 5.83341H12.5M5.83333 9.16675H9.16667" stroke="white" stroke-width="1.25" stroke-linecap="round" stroke-linejoin="round"/>
<path d="M15 15.4168L13.75 14.9585V12.9168M10 14.5835C10 15.076 10.097 15.5636 10.2855 16.0186C10.4739 16.4735 10.7501 16.8869 11.0983 17.2351C11.4466 17.5834 11.86 17.8596 12.3149 18.048C12.7699 18.2365 13.2575 18.3335 13.75 18.3335C14.2425 18.3335 14.7301 18.2365 15.1851 18.048C15.64 17.8596 16.0534 17.5834 16.4016 17.2351C16.7499 16.8869 17.0261 16.4735 17.2145 16.0186C17.403 15.5636 17.5 15.076 17.5 14.5835C17.5 13.5889 17.1049 12.6351 16.4016 11.9318C15.6984 11.2286 14.7446 10.8335 13.75 10.8335C12.7554 10.8335 11.8016 11.2286 11.0983 11.9318C10.3951 12.6351 10 13.5889 10 14.5835Z" stroke="white" stroke-width="1.25" stroke-linecap="round" stroke-linejoin="round"/>
</svg>
