<svg width="32" height="32" viewBox="0 0 32 32" fill="none" xmlns="http://www.w3.org/2000/svg">
<g clip-path="url(#clip0_1331_15701)">
<path fill-rule="evenodd" clip-rule="evenodd" d="M28 16H20C19.4696 16 18.9609 16.2107 18.5858 16.5858C18.2107 16.9609 18 17.4696 18 18V28C18 28.5304 18.2107 29.0391 18.5858 29.4142C18.9609 29.7893 19.4696 30 20 30H28C28.5304 30 29.0391 29.7893 29.4142 29.4142C29.7893 29.0391 30 28.5304 30 28V18C30 17.4696 29.7893 16.9609 29.4142 16.5858C29.0391 16.2107 28.5304 16 28 16ZM20 14C17.8 14 16 15.79 16 18V28C16 30.2 17.79 32 20 32H28C30.2 32 32 30.21 32 28V18C32 15.8 30.21 14 28 14H20Z" fill="#001F7B"/>
<path d="M20 19C20 18.7348 20.1054 18.4804 20.2929 18.2929C20.4804 18.1054 20.7348 18 21 18H27C27.2652 18 27.5196 18.1054 27.7071 18.2929C27.8946 18.4804 28 18.7348 28 19C28 19.2652 27.8946 19.5196 27.7071 19.7071C27.5196 19.8946 27.2652 20 27 20H21C20.7348 20 20.4804 19.8946 20.2929 19.7071C20.1054 19.5196 20 19.2652 20 19ZM20 23C20 22.7348 20.1054 22.4804 20.2929 22.2929C20.4804 22.1054 20.7348 22 21 22H27C27.2652 22 27.5196 22.1054 27.7071 22.2929C27.8946 22.4804 28 22.7348 28 23C28 23.2652 27.8946 23.5196 27.7071 23.7071C27.5196 23.8946 27.2652 24 27 24H21C20.7348 24 20.4804 23.8946 20.2929 23.7071C20.1054 23.5196 20 23.2652 20 23ZM20 27C20 26.7348 20.1054 26.4804 20.2929 26.2929C20.4804 26.1054 20.7348 26 21 26H25C25.2652 26 25.5196 26.1054 25.7071 26.2929C25.8946 26.4804 26 26.7348 26 27C26 27.2652 25.8946 27.5196 25.7071 27.7071C25.5196 27.8946 25.2652 28 25 28H21C20.7348 28 20.4804 27.8946 20.2929 27.7071C20.1054 27.5196 20 27.2652 20 27Z" fill="#001F7B"/>
<path fill-rule="evenodd" clip-rule="evenodd" d="M18 5.99983C18 6.53026 17.7893 7.03897 17.4142 7.41404C17.0391 7.78911 16.5304 7.99983 16 7.99983H8C7.46957 7.99983 6.96086 7.78911 6.58579 7.41404C6.21071 7.03897 6 6.53026 6 5.99983H4C3.46957 5.99983 2.96086 6.21054 2.58579 6.58561C2.21071 6.96069 2 7.46939 2 7.99983V25.9998C2 26.5303 2.21071 27.039 2.58579 27.414C2.96086 27.7891 3.46957 27.9998 4 27.9998H14V29.9998H4C1.8 29.9998 0 28.2098 0 25.9998V7.99983C0 5.79983 1.79 3.99983 4 3.99983H6C6 3.46939 6.21071 2.96069 6.58579 2.58561C6.96086 2.21054 7.46957 1.99983 8 1.99983H8.536C8.88681 1.39266 9.39121 0.888491 9.99855 0.537974C10.6059 0.187456 11.2948 0.00292969 11.996 0.00292969C12.6972 0.00292969 13.3861 0.187456 13.9934 0.537974C14.6008 0.888491 15.1052 1.39266 15.456 1.99983H15.992C16.5224 1.99983 17.0311 2.21054 17.4062 2.58561C17.7813 2.96069 17.992 3.46939 17.992 3.99983H19.992C22.192 3.99983 23.992 5.78983 23.992 7.99983V11.9998H21.992V7.99983C21.992 7.46939 21.7813 6.96069 21.4062 6.58561C21.0311 6.21054 20.5224 5.99983 19.992 5.99983H17.992H18ZM8.54 3.99983C8.89087 4.00002 9.23561 3.90791 9.53963 3.73273C9.84364 3.55756 10.0962 3.30549 10.272 3.00183C10.4473 2.69687 10.6999 2.44353 11.0043 2.26737C11.3087 2.0912 11.6543 1.99844 12.006 1.99844C12.3577 1.99844 12.7032 2.0912 13.0077 2.26737C13.3121 2.44353 13.5647 2.69687 13.74 3.00183C13.9158 3.30549 14.1684 3.55756 14.4724 3.73273C14.7764 3.90791 15.1211 4.00002 15.472 3.99983H15.508C15.6406 3.99983 15.7678 4.05251 15.8616 4.14627C15.9553 4.24004 16.008 4.36722 16.008 4.49983V5.49983C16.008 5.63243 15.9553 5.75961 15.8616 5.85338C15.7678 5.94715 15.6406 5.99983 15.508 5.99983H8.508C8.37539 5.99983 8.24821 5.94715 8.15445 5.85338C8.06068 5.75961 8.008 5.63243 8.008 5.49983V4.49983C8.008 4.36722 8.06068 4.24004 8.15445 4.14627C8.24821 4.05251 8.37539 3.99983 8.508 3.99983H8.54Z" fill="#001F7B"/>
</g>
<defs>
<clipPath id="clip0_1331_15701">
<rect width="32" height="32" fill="white"/>
</clipPath>
</defs>
</svg>
