<svg width="48" height="48" viewBox="0 0 48 48" fill="none" xmlns="http://www.w3.org/2000/svg">
<g clip-path="url(#clip0_1681_5565)">
<path d="M24.5997 2.99979H14.3997C11.8287 2.99979 10.0797 2.99979 8.72972 3.11379C7.41572 3.21879 6.74072 3.41379 6.27272 3.65379C5.1438 4.22902 4.22595 5.14687 3.65072 6.27579C3.41072 6.74379 3.21572 7.41579 3.11072 8.73279C2.99972 10.0798 2.99672 11.8198 2.99672 14.3998V30.5998C2.99672 33.1708 2.99972 34.9198 3.11072 36.2698C3.21872 37.5838 3.41372 38.2588 3.65072 38.7268C4.22672 39.8548 5.14472 40.7728 6.27272 41.3488C6.74072 41.5888 7.41572 41.7838 8.72972 41.8888C9.47972 41.9488 10.3497 41.9788 11.4147 41.9908C11.8047 43.0708 12.3987 44.0968 13.2027 44.9908C8.94272 44.9848 6.69272 44.9098 4.92272 44.0098C3.23091 43.1472 1.85529 41.7716 0.992719 40.0798C0.0117188 38.1538 0.0117188 35.6398 0.0117188 30.5998V14.3998C0.0117188 9.35979 0.0117188 6.83979 0.992719 4.91979C1.85863 3.23041 3.23334 1.8557 4.92272 0.989789C6.84872 0.00878915 9.36272 0.00878906 14.4027 0.00878906H24.6027C29.6427 0.00878906 32.1627 0.00878915 34.0827 0.989789C35.7721 1.8557 37.1468 3.23041 38.0127 4.91979C38.7327 6.32979 38.9247 8.06979 38.9757 10.8898C38.6161 10.8833 38.2565 10.8983 37.8987 10.9348C37.3268 10.2342 36.6557 9.6207 35.9067 9.11379L35.8797 8.75379C35.7717 7.43979 35.5797 6.76479 35.3397 6.29379C34.764 5.16598 33.8462 4.24924 32.7177 3.67479C32.2497 3.43479 31.5777 3.23979 30.2607 3.13479C28.9107 3.02379 27.1707 3.02079 24.5907 3.02079L24.5997 2.99979Z" fill="#150E46"/>
<path d="M24.2103 9H7.50028C7.10246 9 6.72093 9.15804 6.43962 9.43934C6.15832 9.72064 6.00028 10.1022 6.00028 10.5C6.00028 10.8978 6.15832 11.2794 6.43962 11.5607C6.72093 11.842 7.10246 12 7.50028 12H16.7103C18.3593 11.101 20.2419 10.7224 22.1103 10.914C22.7163 10.173 23.4333 9.525 24.2403 9H24.2103ZM7.50028 18H11.4303C11.0779 18.9615 10.8923 19.976 10.8813 21H7.52128C7.12346 21 6.74193 20.842 6.46062 20.5607C6.17932 20.2794 6.02128 19.8978 6.02128 19.5C6.02128 19.1022 6.17932 18.7206 6.46062 18.4393C6.74193 18.158 7.12346 18 7.52128 18H7.50028ZM7.77028 27H7.48828C7.09046 27 6.70893 27.158 6.42762 27.4393C6.14632 27.7206 5.98828 28.1022 5.98828 28.5C5.98828 28.8978 6.14632 29.2794 6.42762 29.5607C6.70893 29.842 7.09046 30 7.48828 30V29.286C7.48828 28.496 7.58228 27.734 7.77028 27Z" fill="#150E46"/>
<path fill-rule="evenodd" clip-rule="evenodd" d="M30 36C33.3 36 36 33.315 36 30C36 26.7 33.315 24 30 24C26.7 24 24 26.685 24 30C24 33.3 26.685 36 30 36ZM30 33C30.7956 33 31.5587 32.6839 32.1213 32.1213C32.6839 31.5587 33 30.7956 33 30C33 29.2044 32.6839 28.4413 32.1213 27.8787C31.5587 27.3161 30.7956 27 30 27C29.2044 27 28.4413 27.3161 27.8787 27.8787C27.3161 28.4413 27 29.2044 27 30C27 30.7956 27.3161 31.5587 27.8787 32.1213C28.4413 32.6839 29.2044 33 30 33Z" fill="#150E46"/>
<path fill-rule="evenodd" clip-rule="evenodd" d="M30.6003 12H29.1783C26.8083 12 24.8283 13.725 24.4683 15.99C24.2553 16.0722 24.0443 16.1592 23.8353 16.251C22.9149 15.5948 21.7914 15.2868 20.665 15.3819C19.5387 15.4769 18.4827 15.9689 17.6853 16.77L16.6743 17.781C15.8753 18.5797 15.3848 19.6354 15.2898 20.7611C15.1948 21.8868 15.5014 23.0098 16.1553 23.931C16.0633 24.141 15.9763 24.352 15.8943 24.564C14.7805 24.7523 13.7691 25.3283 13.039 26.1902C12.3088 27.0521 11.9069 28.1444 11.9043 29.274V30.696C11.9043 33.075 13.6353 35.046 15.8943 35.436C15.9743 35.644 16.0593 35.85 16.1493 36.054C15.4901 36.9784 15.1799 38.1065 15.2739 39.238C15.3678 40.3695 15.8597 41.431 16.6623 42.234L17.6523 43.224C19.3383 44.91 21.9723 45.084 23.8623 43.728C24.0583 43.818 24.2563 43.901 24.4563 43.977C24.6413 45.1004 25.2196 46.1214 26.0878 46.8578C26.9561 47.5942 28.0578 47.9979 29.1963 47.997H30.5703C32.9703 47.997 34.9503 46.245 35.3403 43.947C35.5363 43.869 35.7303 43.788 35.9223 43.704C37.8063 45.066 40.4523 44.898 42.1623 43.203L43.1253 42.24C44.8203 40.545 44.9883 37.89 43.6263 36C43.7123 35.806 43.7933 35.612 43.8693 35.418C45.0006 35.2329 46.0292 34.6514 46.7712 33.7776C47.5131 32.9037 47.9201 31.7944 47.9193 30.648V29.274C47.9193 26.883 46.1763 24.894 43.8993 24.534C43.8216 24.3323 43.7396 24.1322 43.6533 23.934C45.0033 22.059 44.8353 19.434 43.1433 17.724L42.1593 16.74C41.3563 15.9375 40.2947 15.4455 39.1633 15.3516C38.0318 15.2577 36.9037 15.5679 35.9793 16.227C35.7752 16.1365 35.5692 16.0504 35.3613 15.969C35.1722 14.8501 34.5918 13.8348 33.7237 13.104C32.8555 12.3732 31.7561 11.9745 30.6213 11.979L30.6003 12ZM27.3903 16.8C27.3903 15.813 28.1883 15.015 29.1753 15.015H30.5973C31.5873 15.015 32.3913 15.819 32.3913 16.809C32.3913 17.655 32.9883 18.372 33.7893 18.648C34.2613 18.81 34.7193 19.001 35.1633 19.221C35.9253 19.596 36.8613 19.512 37.4613 18.912C37.7987 18.5759 38.2555 18.3871 38.7318 18.3871C39.2081 18.3871 39.6649 18.5759 40.0023 18.912L40.9893 19.899C41.3278 20.2382 41.518 20.6978 41.518 21.177C41.518 21.6563 41.3278 22.1159 40.9893 22.455C40.3863 23.058 40.2993 23.994 40.6713 24.759C40.8813 25.193 41.0653 25.64 41.2233 26.1C41.5023 26.91 42.2253 27.516 43.0803 27.516C44.0793 27.516 44.8893 28.326 44.8893 29.325V30.699C44.8893 31.1812 44.6978 31.6436 44.3568 31.9846C44.0159 32.3255 43.5535 32.517 43.0713 32.517C42.2133 32.517 41.4873 33.123 41.2053 33.93C41.0493 34.382 40.8673 34.821 40.6593 35.247C40.2843 36.018 40.3683 36.963 40.9773 37.569C41.1465 37.7377 41.2807 37.938 41.3723 38.1586C41.4639 38.3792 41.511 38.6157 41.511 38.8545C41.511 39.0934 41.4639 39.3299 41.3723 39.5505C41.2807 39.7711 41.1465 39.9714 40.9773 40.14L40.0143 41.103C39.8457 41.2722 39.6453 41.4064 39.4247 41.498C39.2041 41.5896 38.9676 41.6367 38.7288 41.6367C38.4899 41.6367 38.2534 41.5896 38.0329 41.498C37.8123 41.4064 37.6119 41.2722 37.4433 41.103C36.8373 40.497 35.8923 40.41 35.1213 40.785C34.6953 40.993 34.2563 41.175 33.8043 41.331C32.9943 41.613 32.3883 42.339 32.3883 43.197C32.3883 43.6792 32.1968 44.1416 31.8558 44.4826C31.5149 44.8235 31.0525 45.015 30.5703 45.015H29.1963C28.7165 45.015 28.2564 44.8245 27.9171 44.4852C27.5779 44.1459 27.3873 43.6858 27.3873 43.206C27.3873 42.351 26.7813 41.625 25.9713 41.349C25.5136 41.1922 25.0658 41.0079 24.6303 40.797C23.8653 40.425 22.9293 40.512 22.3263 41.112C21.9871 41.4506 21.5275 41.6407 21.0483 41.6407C20.5691 41.6407 20.1095 41.4506 19.7703 41.112L18.7833 40.125C18.4471 39.7877 18.2584 39.3308 18.2584 38.8545C18.2584 38.3783 18.4471 37.9214 18.7833 37.584C19.3833 36.984 19.4673 36.048 19.0923 35.286C18.873 34.8403 18.6817 34.3815 18.5193 33.912C18.2433 33.111 17.5263 32.514 16.6803 32.514C16.205 32.5125 15.7496 32.3229 15.4135 31.9868C15.0774 31.6507 14.8879 31.1954 14.8863 30.72V29.298C14.8863 28.311 15.6843 27.513 16.6713 27.513C17.5173 27.513 18.2313 26.916 18.5043 26.115C18.6677 25.6373 18.8611 25.1704 19.0833 24.717C19.4553 23.961 19.3713 23.034 18.7743 22.437C18.4398 22.1018 18.2519 21.6476 18.2519 21.174C18.2519 20.7005 18.4398 20.2463 18.7743 19.911L19.7853 18.9C20.1205 18.5655 20.5747 18.3777 21.0483 18.3777C21.5219 18.3777 21.9761 18.5655 22.3113 18.9C22.9083 19.497 23.8353 19.581 24.5913 19.209C25.0413 18.989 25.5073 18.796 25.9893 18.63C26.7903 18.36 27.3873 17.643 27.3873 16.797L27.3903 16.8Z" fill="#150E46"/>
</g>
<defs>
<clipPath id="clip0_1681_5565">
<rect width="48" height="48" fill="white"/>
</clipPath>
</defs>
</svg>
