<svg width="48" height="48" viewBox="0 0 48 48" fill="none" xmlns="http://www.w3.org/2000/svg">
<path d="M24 44C22.364 44 20.8 43.33 17.674 41.988C9.892 38.648 6 36.98 6 34.17V15.494M24 44C25.636 44 27.2 43.33 30.326 41.988C38.108 38.648 42 36.98 42 34.17V15.494M24 44V24.34M6 15.494C6 16.702 7.604 17.466 10.81 18.99L16.65 21.77C20.258 23.484 22.06 24.34 24 24.34M6 15.494C6 14.286 7.604 13.526 10.81 12M42 15.494C42 16.7 40.396 17.464 37.19 18.99L31.35 21.77C27.74 23.482 25.94 24.34 24 24.34M42 15.494C42 14.286 40.396 13.524 37.19 11.998M12.664 26.622L16.652 28.518" stroke="#0D0264" stroke-width="3" stroke-linecap="round" stroke-linejoin="round"/>
<path d="M24 4V8M32 6L29 10M16 6L19 10" stroke="#0D0264" stroke-width="3" stroke-linecap="round"/>
</svg>
