<svg width="32" height="32" viewBox="0 0 32 32" fill="none" xmlns="http://www.w3.org/2000/svg">
<path d="M9.56065 4.3335H17.1073C17.8207 4.3335 18.414 4.3335 18.9007 4.3735C19.4073 4.4135 19.882 4.50416 20.3313 4.7335C21.0214 5.08506 21.5824 5.64609 21.934 6.33616C22.1633 6.7855 22.254 7.26016 22.294 7.76683C22.334 8.2535 22.334 8.84683 22.334 9.56016V13.6668C22.334 13.932 22.2286 14.1864 22.0411 14.3739C21.8536 14.5615 21.5992 14.6668 21.334 14.6668C21.0688 14.6668 20.8144 14.5615 20.6269 14.3739C20.4393 14.1864 20.334 13.932 20.334 13.6668V9.60016C20.334 8.8375 20.334 8.32416 20.3007 7.9295C20.27 7.54683 20.214 7.36416 20.1527 7.24416C19.9931 6.93025 19.7383 6.67493 19.4247 6.51483C19.3033 6.4535 19.1207 6.3975 18.738 6.36683C18.3433 6.33483 17.8313 6.3335 17.0673 6.3335H9.60065C8.83798 6.3335 8.32465 6.3335 7.92998 6.36683C7.54732 6.3975 7.36465 6.4535 7.24465 6.51483C6.93054 6.67471 6.6752 6.93005 6.51532 7.24416C6.45398 7.36416 6.39798 7.54683 6.36732 7.9295C6.33532 8.32416 6.33398 8.83616 6.33398 9.60016V22.4002C6.33398 23.1628 6.33398 23.6762 6.36732 24.0695C6.39798 24.4535 6.45398 24.6362 6.51532 24.7562C6.66732 25.0535 6.90198 25.2975 7.19265 25.4575C7.21398 25.4628 7.2611 25.4713 7.33398 25.4828C7.48954 25.5059 7.7011 25.5273 7.96865 25.5468C8.49932 25.5868 9.18198 25.6135 9.90732 25.6308C11.354 25.6668 12.9207 25.6668 13.6673 25.6668C13.9325 25.6668 14.1869 25.7722 14.3744 25.9597C14.562 26.1473 14.6673 26.4016 14.6673 26.6668C14.6673 26.932 14.562 27.1864 14.3744 27.3739C14.1869 27.5615 13.9325 27.6668 13.6673 27.6668H13.6647C12.918 27.6668 11.3313 27.6668 9.85798 27.6308C9.17872 27.6168 8.49987 27.587 7.82198 27.5415C7.56109 27.5244 7.30092 27.4977 7.04198 27.4615C6.79785 27.4332 6.55952 27.3675 6.33532 27.2668C5.64615 26.9157 5.08565 26.3557 4.73398 25.6668C4.50465 25.2162 4.41398 24.7415 4.37398 24.2348C4.33398 23.7482 4.33398 23.1548 4.33398 22.4415V9.56016C4.33398 8.84683 4.33398 8.2535 4.37398 7.76683C4.41398 7.26016 4.50465 6.7855 4.73398 6.33616C5.08554 5.64609 5.64658 5.08506 6.33665 4.7335C6.78598 4.50416 7.26065 4.4135 7.76732 4.3735C8.25398 4.3335 8.84732 4.3335 9.56065 4.3335Z" fill="#001F7B"/>
<path d="M19.1607 16.3335H24.838C25.3647 16.3335 25.8193 16.3335 26.194 16.3642C26.59 16.3962 26.9833 16.4682 27.3607 16.6602C27.926 16.9482 28.3847 17.4068 28.6727 17.9722C28.8647 18.3495 28.9367 18.7428 28.9687 19.1388C28.9993 19.5122 28.9993 19.9682 28.9993 20.4948V23.5055C28.9993 24.0322 28.9993 24.4868 28.9687 24.8615C28.948 25.2661 28.8474 25.6626 28.6727 26.0282C28.3853 26.5929 27.9265 27.0522 27.362 27.3402C26.9833 27.5322 26.5887 27.6042 26.194 27.6362C25.8207 27.6668 25.3647 27.6668 24.838 27.6668H19.1593C18.6327 27.6668 18.178 27.6668 17.8033 27.6362C17.3987 27.6155 17.0022 27.5149 16.6367 27.3402C16.0719 27.0528 15.6126 26.594 15.3247 26.0295C15.1497 25.6636 15.0491 25.2666 15.0287 24.8615C14.998 24.4882 14.998 24.0322 14.998 23.5055V20.4935C14.998 19.9668 14.998 19.5122 15.0287 19.1375C15.0493 18.7329 15.1499 18.3363 15.3247 17.9708C15.6124 17.4058 16.0717 16.9465 16.6367 16.6588C17.0022 16.4841 17.3987 16.3835 17.8033 16.3628C18.1767 16.3322 18.6327 16.3322 19.1593 16.3322M17.966 18.3562C17.694 18.3788 17.5927 18.4162 17.5433 18.4415C17.3557 18.5373 17.2031 18.6899 17.1073 18.8775C17.0807 18.9282 17.0447 19.0282 17.022 19.3002L17.0193 19.3322H26.9767L26.974 19.3002C26.9513 19.0282 26.914 18.9268 26.8887 18.8775C26.7926 18.6897 26.6395 18.5371 26.4513 18.4415C26.402 18.4148 26.302 18.3788 26.03 18.3562C25.6198 18.3336 25.2088 18.3256 24.798 18.3322H19.198C18.622 18.3322 18.2487 18.3322 17.966 18.3562ZM26.9993 22.0002H16.9993V23.4668C16.9993 24.0428 16.9993 24.4162 17.0233 24.6988C17.046 24.9708 17.0833 25.0722 17.1087 25.1202C17.2042 25.3083 17.3568 25.4614 17.5447 25.5575C17.5953 25.5842 17.6953 25.6202 17.9673 25.6428C18.25 25.6655 18.6233 25.6668 19.1993 25.6668H24.7993C25.3753 25.6668 25.7487 25.6668 26.0313 25.6428C26.3033 25.6202 26.4047 25.5828 26.4527 25.5575C26.641 25.4616 26.7941 25.3085 26.89 25.1202C26.9167 25.0708 26.9527 24.9708 26.9753 24.6988C26.998 24.4162 26.9993 24.0428 26.9993 23.4668V22.0002ZM8.66602 8.3335C8.4008 8.3335 8.14645 8.43885 7.95891 8.62639C7.77137 8.81393 7.66602 9.06828 7.66602 9.3335C7.66602 9.59871 7.77137 9.85307 7.95891 10.0406C8.14645 10.2281 8.4008 10.3335 8.66602 10.3335H13.9993C14.2646 10.3335 14.5189 10.2281 14.7065 10.0406C14.894 9.85307 14.9993 9.59871 14.9993 9.3335C14.9993 9.06828 14.894 8.81393 14.7065 8.62639C14.5189 8.43885 14.2646 8.3335 13.9993 8.3335H8.66602ZM7.66602 13.3335C7.66602 13.0683 7.77137 12.8139 7.95891 12.6264C8.14645 12.4389 8.4008 12.3335 8.66602 12.3335H17.9993C18.2646 12.3335 18.5189 12.4389 18.7065 12.6264C18.894 12.8139 18.9993 13.0683 18.9993 13.3335C18.9993 13.5987 18.894 13.8531 18.7065 14.0406C18.5189 14.2281 18.2646 14.3335 17.9993 14.3335H8.66602C8.4008 14.3335 8.14645 14.2281 7.95891 14.0406C7.77137 13.8531 7.66602 13.5987 7.66602 13.3335ZM8.66602 16.3335C8.4008 16.3335 8.14645 16.4389 7.95891 16.6264C7.77137 16.8139 7.66602 17.0683 7.66602 17.3335C7.66602 17.5987 7.77137 17.8531 7.95891 18.0406C8.14645 18.2281 8.4008 18.3335 8.66602 18.3335H13.3327C13.5979 18.3335 13.8523 18.2281 14.0398 18.0406C14.2273 17.8531 14.3327 17.5987 14.3327 17.3335C14.3327 17.0683 14.2273 16.8139 14.0398 16.6264C13.8523 16.4389 13.5979 16.3335 13.3327 16.3335H8.66602ZM7.66602 22.6668C7.66602 22.4016 7.77137 22.1473 7.95891 21.9597C8.14645 21.7722 8.4008 21.6668 8.66602 21.6668H11.3327C11.5979 21.6668 11.8523 21.7722 12.0398 21.9597C12.2273 22.1473 12.3327 22.4016 12.3327 22.6668C12.3327 22.932 12.2273 23.1864 12.0398 23.3739C11.8523 23.5615 11.5979 23.6668 11.3327 23.6668H8.66602C8.4008 23.6668 8.14645 23.5615 7.95891 23.3739C7.77137 23.1864 7.66602 22.932 7.66602 22.6668Z" fill="#001F7B"/>
</svg>
