<svg width="48" height="48" viewBox="0 0 48 48" fill="none" xmlns="http://www.w3.org/2000/svg">
<path d="M27.5003 20C27.5003 20.828 28.1723 21.5 29.0003 21.5H30.3803L26.3543 25.526C26.3079 25.5726 26.2527 25.6095 26.1919 25.6347C26.1312 25.6599 26.0661 25.6729 26.0003 25.6729C25.9345 25.6729 25.8694 25.6599 25.8087 25.6347C25.7479 25.6095 25.6928 25.5726 25.6463 25.526L22.4743 22.354C21.818 21.6982 20.9281 21.3297 20.0003 21.3297C19.0725 21.3297 18.1826 21.6982 17.5263 22.354L12.9403 26.94C12.7929 27.0773 12.6747 27.2429 12.5927 27.4269C12.5108 27.6109 12.4667 27.8096 12.4631 28.011C12.4596 28.2124 12.4966 28.4124 12.5721 28.5992C12.6475 28.786 12.7598 28.9556 12.9022 29.0981C13.0447 29.2405 13.2143 29.3528 13.4011 29.4282C13.5879 29.5037 13.7879 29.5407 13.9894 29.5372C14.1908 29.5336 14.3894 29.4895 14.5734 29.4076C14.7574 29.3256 14.923 29.2074 15.0603 29.06L19.6463 24.474C19.6928 24.4274 19.7479 24.3905 19.8087 24.3653C19.8694 24.3401 19.9345 24.3271 20.0003 24.3271C20.0661 24.3271 20.1312 24.3401 20.1919 24.3653C20.2527 24.3905 20.3079 24.4274 20.3543 24.474L23.5263 27.646C24.1826 28.3018 25.0725 28.6703 26.0003 28.6703C26.9281 28.6703 27.818 28.3018 28.4743 27.646L32.5003 23.622V25C32.5003 25.3978 32.6583 25.7794 32.9396 26.0607C33.221 26.342 33.6025 26.5 34.0003 26.5C34.3981 26.5 34.7797 26.342 35.061 26.0607C35.3423 25.7794 35.5003 25.3978 35.5003 25V20C35.5003 19.6022 35.3423 19.2206 35.061 18.9393C34.7797 18.658 34.3981 18.5 34.0003 18.5H29.0003C28.6025 18.5 28.221 18.658 27.9396 18.9393C27.6583 19.2206 27.5003 19.6022 27.5003 20Z" fill="#0D0264"/>
<path fill-rule="evenodd" clip-rule="evenodd" d="M23.886 2.5C19.268 2.5 15.65 2.5 12.826 2.88C9.938 3.268 7.658 4.08 5.868 5.868C4.078 7.658 3.268 9.938 2.88 12.828C2.5 15.65 2.5 19.268 2.5 23.886V24.114C2.5 28.732 2.5 32.35 2.88 35.174C3.268 38.062 4.08 40.342 5.868 42.132C7.658 43.922 9.938 44.732 12.828 45.12C15.65 45.5 19.268 45.5 23.886 45.5H24.114C28.732 45.5 32.35 45.5 35.174 45.12C38.062 44.732 40.342 43.92 42.132 42.132C43.922 40.342 44.732 38.062 45.12 35.172C45.5 32.35 45.5 28.732 45.5 24.114V23.886C45.5 19.268 45.5 15.65 45.12 12.826C44.732 9.938 43.92 7.658 42.132 5.868C40.342 4.078 38.062 3.268 35.172 2.88C32.35 2.5 28.732 2.5 24.114 2.5H23.886ZM7.99 7.99C9.13 6.85 10.67 6.196 13.228 5.852C15.828 5.504 19.244 5.5 24 5.5C28.756 5.5 32.172 5.504 34.772 5.852C37.33 6.196 38.872 6.852 40.012 7.99C41.15 9.13 41.804 10.67 42.148 13.228C42.496 15.828 42.5 19.244 42.5 24C42.5 28.756 42.496 32.172 42.148 34.772C41.804 37.33 41.148 38.872 40.01 40.012C38.87 41.15 37.33 41.804 34.772 42.148C32.172 42.496 28.756 42.5 24 42.5C19.244 42.5 15.828 42.496 13.228 42.148C10.67 41.804 9.128 41.148 7.988 40.01C6.85 38.87 6.196 37.33 5.852 34.772C5.504 32.172 5.5 28.756 5.5 24C5.5 19.244 5.504 15.828 5.852 13.228C6.196 10.67 6.852 9.13 7.99 7.99Z" fill="#0D0264"/>
</svg>
