<svg width="20" height="20" viewBox="0 0 20 20" fill="none" xmlns="http://www.w3.org/2000/svg">
<path d="M15.8333 9.16675V8.33341C15.8333 5.19091 15.8333 3.61925 14.8567 2.64341C13.88 1.66758 12.3092 1.66675 9.16667 1.66675C6.02417 1.66675 4.4525 1.66675 3.47667 2.64341C2.50083 3.62008 2.5 5.19091 2.5 8.33341V11.6667C2.5 14.8092 2.5 16.3809 3.47667 17.3567C4.45333 18.3326 6.02417 18.3334 9.16667 18.3334" stroke="white" stroke-width="1.25" stroke-linecap="round" stroke-linejoin="round"/>
<path d="M17.4991 18.3334L16.0708 16.9051M16.5466 14.5243C16.5531 14.9036 16.484 15.2804 16.3433 15.6327C16.2026 15.985 15.9932 16.3058 15.7273 16.5763C15.4613 16.8468 15.1442 17.0617 14.7943 17.2084C14.4445 17.355 14.0689 17.4306 13.6895 17.4306C13.3102 17.4306 12.9346 17.355 12.5848 17.2084C12.2349 17.0617 11.9177 16.8468 11.6518 16.5763C11.3858 16.3058 11.1764 15.985 11.0358 15.6327C10.8951 15.2804 10.826 14.9036 10.8324 14.5243C10.8452 13.775 11.1519 13.0607 11.6863 12.5353C12.2207 12.01 12.9401 11.7156 13.6895 11.7156C14.4389 11.7156 15.1583 12.01 15.6928 12.5353C16.2272 13.0607 16.5338 13.775 16.5466 14.5243Z" stroke="white" stroke-width="1.25" stroke-linecap="round"/>
<path d="M5.83398 5.8335H12.5007M5.83398 9.16683H9.16732" stroke="white" stroke-width="1.25" stroke-linecap="round" stroke-linejoin="round"/>
</svg>
