<svg width="48" height="48" viewBox="0 0 48 48" fill="none" xmlns="http://www.w3.org/2000/svg">
<g clip-path="url(#clip0_1331_16044)">
<path d="M3.07463 30.8779C3.41749 32.5819 4.88492 33.8848 6.6232 33.8848H34.9432C36.6815 33.8848 38.1455 32.5819 38.5055 30.8813C38.9512 28.7728 39.4141 26.8013 39.4141 20.6231C39.4141 14.4448 38.9512 12.4733 38.5055 10.3648C38.1455 8.6642 36.6815 7.35791 34.9432 7.35791H6.6232C4.88492 7.35791 3.42092 8.66077 3.07463 10.3682C2.62549 12.5762 2.15234 14.6299 2.15234 20.6196C2.15234 26.6093 2.62549 28.6699 3.07463 30.8779Z" stroke="#4E37FB" stroke-width="3.42857" stroke-linecap="round" stroke-linejoin="round"/>
<path d="M8.80986 40.6425H41.3401C43.075 40.6425 44.5321 39.3431 44.9059 37.6494C45.3653 35.5374 45.8453 33.5694 45.8453 27.3774C45.8453 21.4288 45.8453 17.9145 45.3344 14.6128M7.76758 20.6231L9.85558 20.5956M31.7127 20.6231L33.7973 20.5956M20.7824 25.2894C23.7653 25.2894 25.4453 23.6094 25.4453 20.6231C25.4453 17.6368 23.7653 15.9602 20.7824 15.9602C17.7961 15.9568 16.1196 17.6368 16.1196 20.6231C16.1196 23.6059 17.7961 25.2894 20.7824 25.2894Z" stroke="#4E37FB" stroke-width="3.42857" stroke-linecap="round" stroke-linejoin="round"/>
</g>
<defs>
<clipPath id="clip0_1331_16044">
<rect width="48" height="48" fill="white"/>
</clipPath>
</defs>
</svg>
