<svg width="58" height="58" viewBox="0 0 58 58" fill="none" xmlns="http://www.w3.org/2000/svg">
<rect width="58" height="58" rx="29" fill="#FAF9FF"/>
<path d="M32.7183 25.5713C33.4003 25.5713 34.0543 25.8422 34.5366 26.3245C35.0188 26.8067 35.2897 27.4608 35.2897 28.1428V35.2845C35.2897 36.9518 34.6274 38.5509 33.4484 39.7299C32.2693 40.909 30.6703 41.5713 29.0029 41.5713C27.3355 41.5713 25.7364 40.909 24.5574 39.7299C23.3784 38.5509 22.716 36.9518 22.716 35.2845V28.1428C22.716 27.4608 22.9869 26.8067 23.4692 26.3245C23.9514 25.8422 24.6055 25.5713 25.2874 25.5713H32.7183ZM32.7183 27.2856H25.2874C25.0601 27.2856 24.8421 27.3759 24.6814 27.5367C24.5206 27.6974 24.4303 27.9154 24.4303 28.1428V35.2845C24.4303 36.4972 24.9121 37.6602 25.7696 38.5178C26.6271 39.3753 27.7902 39.857 29.0029 39.857C30.2156 39.857 31.3786 39.3753 32.2362 38.5178C33.0937 37.6602 33.5754 36.4972 33.5754 35.2845V28.1428C33.5754 27.9154 33.4851 27.6974 33.3244 27.5367C33.1636 27.3759 32.9456 27.2856 32.7183 27.2856ZM17.8566 25.5713H22.6063C22.1473 26.049 21.8249 26.641 21.6726 27.2856H17.8566C17.6293 27.2856 17.4112 27.3759 17.2505 27.5367C17.0897 27.6974 16.9994 27.9154 16.9994 28.1428V34.1416C16.999 34.7152 17.1424 35.2796 17.4166 35.7834C17.6908 36.2871 18.087 36.7141 18.5689 37.0251C19.0508 37.3361 19.603 37.5212 20.175 37.5635C20.747 37.6058 21.3204 37.504 21.8429 37.2673C21.9949 37.8273 22.2132 38.3599 22.4874 38.8582C21.7045 39.2004 20.8485 39.342 19.9971 39.2704C19.1456 39.1988 18.3253 38.9162 17.6105 38.4481C16.8957 37.9799 16.3087 37.3411 15.9027 36.5892C15.4967 35.8373 15.2845 34.9961 15.2852 34.1416V28.1428C15.2852 27.4608 15.5561 26.8067 16.0383 26.3245C16.5205 25.8422 17.1746 25.5713 17.8566 25.5713ZM40.1423 25.5713C40.8243 25.5713 41.4783 25.8422 41.9606 26.3245C42.4428 26.8067 42.7137 27.4608 42.7137 28.1428V34.1428C42.7141 34.9967 42.5018 35.8372 42.096 36.5885C41.6903 37.3399 41.1039 37.9784 40.3896 38.4464C39.6754 38.9144 38.8559 39.1972 38.0051 39.2693C37.1542 39.3414 36.2988 39.2005 35.516 38.8593L35.58 38.7428C35.8246 38.2788 36.0223 37.7862 36.164 37.2696C36.6862 37.5046 37.2589 37.605 37.8298 37.5618C38.4008 37.5185 38.9518 37.333 39.4326 37.022C39.9134 36.7111 40.3087 36.2847 40.5824 35.7818C40.8561 35.2788 40.9995 34.7153 40.9994 34.1428V28.1428C40.9994 27.9156 40.9093 27.6978 40.7488 27.5371C40.5883 27.3764 40.3706 27.2859 40.1434 27.2856H36.3343C36.1817 26.6408 35.8588 26.0488 35.3994 25.5713H40.1423ZM28.9994 16.4285C29.5247 16.4285 30.0449 16.5319 30.5302 16.7329C31.0155 16.934 31.4564 17.2286 31.8279 17.6C32.1993 17.9715 32.4939 18.4124 32.695 18.8977C32.896 19.383 32.9994 19.9032 32.9994 20.4285C32.9994 20.9538 32.896 21.4739 32.695 21.9592C32.4939 22.4445 32.1993 22.8855 31.8279 23.2569C31.4564 23.6283 31.0155 23.923 30.5302 24.124C30.0449 24.325 29.5247 24.4285 28.9994 24.4285C27.9386 24.4285 26.9212 24.007 26.171 23.2569C25.4209 22.5067 24.9994 21.4893 24.9994 20.4285C24.9994 19.3676 25.4209 18.3502 26.171 17.6C26.9212 16.8499 27.9386 16.4285 28.9994 16.4285ZM38.1457 17.5713C38.596 17.5713 39.0418 17.66 39.4578 17.8323C39.8738 18.0046 40.2517 18.2572 40.5701 18.5755C40.8885 18.8939 41.141 19.2719 41.3133 19.6878C41.4856 20.1038 41.5743 20.5496 41.5743 20.9999C41.5743 21.4501 41.4856 21.896 41.3133 22.312C41.141 22.7279 40.8885 23.1059 40.5701 23.4243C40.2517 23.7426 39.8738 23.9952 39.4578 24.1675C39.0418 24.3398 38.596 24.4285 38.1457 24.4285C37.2364 24.4285 36.3643 24.0672 35.7214 23.4243C35.0784 22.7813 34.7172 21.9092 34.7172 20.9999C34.7172 20.0906 35.0784 19.2185 35.7214 18.5755C36.3643 17.9325 37.2364 17.5713 38.1457 17.5713ZM19.8532 17.5713C20.3034 17.5713 20.7492 17.66 21.1652 17.8323C21.5812 18.0046 21.9592 18.2572 22.2775 18.5755C22.5959 18.8939 22.8484 19.2719 23.0207 19.6878C23.193 20.1038 23.2817 20.5496 23.2817 20.9999C23.2817 21.4501 23.193 21.896 23.0207 22.312C22.8484 22.7279 22.5959 23.1059 22.2775 23.4243C21.9592 23.7426 21.5812 23.9952 21.1652 24.1675C20.7492 24.3398 20.3034 24.4285 19.8532 24.4285C18.9438 24.4285 18.0718 24.0672 17.4288 23.4243C16.7858 22.7813 16.4246 21.9092 16.4246 20.9999C16.4246 20.0906 16.7858 19.2185 17.4288 18.5755C18.0718 17.9325 18.9438 17.5713 19.8532 17.5713ZM28.9994 18.1428C28.3932 18.1428 27.8119 18.3836 27.3832 18.8122C26.9545 19.2409 26.7137 19.8223 26.7137 20.4285C26.7137 21.0347 26.9545 21.6161 27.3832 22.0447C27.8119 22.4734 28.3932 22.7142 28.9994 22.7142C29.6057 22.7142 30.187 22.4734 30.6157 22.0447C31.0443 21.6161 31.2852 21.0347 31.2852 20.4285C31.2852 19.8223 31.0443 19.2409 30.6157 18.8122C30.187 18.3836 29.6057 18.1428 28.9994 18.1428ZM38.1457 19.2856C37.9206 19.2856 37.6977 19.33 37.4897 19.4161C37.2817 19.5023 37.0927 19.6285 36.9335 19.7877C36.7744 19.9469 36.6481 20.1359 36.5619 20.3439C36.4758 20.5519 36.4314 20.7748 36.4314 20.9999C36.4314 21.225 36.4758 21.4479 36.5619 21.6559C36.6481 21.8639 36.7744 22.0529 36.9335 22.2121C37.0927 22.3713 37.2817 22.4975 37.4897 22.5837C37.6977 22.6698 37.9206 22.7142 38.1457 22.7142C38.6004 22.7142 39.0364 22.5336 39.3579 22.2121C39.6794 21.8906 39.86 21.4546 39.86 20.9999C39.86 20.5452 39.6794 20.1092 39.3579 19.7877C39.0364 19.4662 38.6004 19.2856 38.1457 19.2856ZM19.8532 19.2856C19.628 19.2856 19.4051 19.33 19.1971 19.4161C18.9891 19.5023 18.8002 19.6285 18.641 19.7877C18.4818 19.9469 18.3555 20.1359 18.2694 20.3439C18.1832 20.5519 18.1389 20.7748 18.1389 20.9999C18.1389 21.225 18.1832 21.4479 18.2694 21.6559C18.3555 21.8639 18.4818 22.0529 18.641 22.2121C18.8002 22.3713 18.9891 22.4975 19.1971 22.5837C19.4051 22.6698 19.628 22.7142 19.8532 22.7142C20.3078 22.7142 20.7439 22.5336 21.0653 22.2121C21.3868 21.8906 21.5674 21.4546 21.5674 20.9999C21.5674 20.5452 21.3868 20.1092 21.0653 19.7877C20.7439 19.4662 20.3078 19.2856 19.8532 19.2856Z" fill="#4E37FB"/>
</svg>
