<svg width="5" height="8" viewBox="0 0 5 8" fill="none" xmlns="http://www.w3.org/2000/svg">
<path d="M0 7.5C0 7.36328 0.0488281 7.24609 0.146484 7.14844L3.29297 4.00195L0.146484 0.855469C0.0488281 0.757812 0 0.640625 0 0.503906C0 0.367188 0.046875 0.25 0.140625 0.152344C0.238281 0.0507813 0.357422 0 0.498047 0C0.634766 0 0.751953 0.0488281 0.849609 0.146484L4.35352 3.65039C4.45117 3.74805 4.5 3.86523 4.5 4.00195C4.5 4.13867 4.45117 4.25586 4.35352 4.35352L0.849609 7.85742C0.751953 7.95508 0.634766 8.00391 0.498047 8.00391C0.357422 8.00391 0.238281 7.95508 0.140625 7.85742C0.046875 7.75586 0 7.63672 0 7.5Z" fill="black" fill-opacity="0.6063"/>
</svg>
