<svg width="40" height="40" viewBox="0 0 40 40" fill="none" xmlns="http://www.w3.org/2000/svg">
<path d="M34.636 23H26.866C25.8422 23.0042 24.8615 23.4129 24.1377 24.1371C23.4139 24.8613 23.0057 25.8422 23.002 26.866V34.636C23.0015 35.1436 23.1011 35.6463 23.2951 36.1153C23.4891 36.5844 23.7737 37.0105 24.1326 37.3694C24.4915 37.7283 24.9177 38.0129 25.3867 38.2069C25.8557 38.4009 26.3584 38.5005 26.866 38.5H34.636C35.6606 38.4995 36.6432 38.0922 37.3677 37.3677C38.0922 36.6432 38.4995 35.6606 38.5 34.636V26.866C38.5005 26.3584 38.4009 25.8557 38.2069 25.3867C38.0129 24.9177 37.7283 24.4915 37.3694 24.1326C37.0105 23.7737 36.5844 23.4891 36.1153 23.2951C35.6463 23.1011 35.1436 23.0015 34.636 23.002M34.636 1.5H5.36401C4.85643 1.49948 4.35373 1.59906 3.88469 1.79306C3.41565 1.98706 2.98948 2.27166 2.63057 2.63057C2.27166 2.98948 1.98706 3.41565 1.79306 3.88469C1.59906 4.35373 1.49948 4.85643 1.5 5.364V13.134C1.49922 13.6417 1.59861 14.1447 1.79249 14.6139C1.98637 15.0832 2.27093 15.5096 2.62986 15.8687C2.9888 16.2279 3.41506 16.5126 3.88423 16.7068C4.3534 16.9009 4.85626 17.0005 5.36401 17H34.636C35.1436 17.0005 35.6463 16.9009 36.1153 16.7069C36.5844 16.5129 37.0105 16.2283 37.3694 15.8694C37.7283 15.5105 38.0129 15.0844 38.2069 14.6153C38.4009 14.1463 38.5005 13.6436 38.5 13.136V5.364C38.5005 4.85643 38.4009 4.35373 38.2069 3.88469C38.0129 3.41565 37.7283 2.98948 37.3694 2.63057C37.0105 2.27166 36.5844 1.98706 36.1153 1.79306C35.6463 1.59906 35.1436 1.49948 34.636 1.5ZM13.134 23H5.36401C4.85626 22.9995 4.3534 23.0991 3.88423 23.2932C3.41506 23.4874 2.9888 23.7722 2.62986 24.1313C2.27093 24.4904 1.98637 24.9168 1.79249 25.3861C1.59861 25.8553 1.49922 26.3583 1.5 26.866V34.636C1.49948 35.1436 1.59906 35.6463 1.79306 36.1153C1.98706 36.5844 2.27166 37.0105 2.63057 37.3694C2.98948 37.7283 3.41565 38.0129 3.88469 38.2069C4.35373 38.4009 4.85643 38.5005 5.36401 38.5H13.134C13.6416 38.5005 14.1443 38.4009 14.6133 38.2069C15.0824 38.0129 15.5085 37.7283 15.8674 37.3694C16.2263 37.0105 16.5109 36.5844 16.7049 36.1153C16.8989 35.6463 16.9985 35.1436 16.998 34.636V26.866C16.9943 25.8422 16.5861 24.8613 15.8623 24.1371C15.1385 23.4129 14.1579 23.0042 13.134 23Z" stroke="#4E37FB" stroke-width="3" stroke-linecap="round" stroke-linejoin="round"/>
</svg>
