<svg width="6" height="6" viewBox="0 0 6 6" fill="none" xmlns="http://www.w3.org/2000/svg">
<g clip-path="url(#clip0_175_21634)">
<path d="M5.25001 1.2501L0.750009 1.2501C0.704449 1.25024 0.65979 1.2628 0.62084 1.28644C0.58189 1.31008 0.550124 1.34389 0.52896 1.38423C0.507797 1.42458 0.498038 1.46994 0.500734 1.51542C0.50343 1.5609 0.518478 1.60478 0.544259 1.64235L2.79426 4.89235C2.88751 5.0271 3.11201 5.0271 3.20551 4.89235L5.45551 1.64235C5.48155 1.60486 5.49683 1.56095 5.49967 1.5154C5.50251 1.46984 5.49281 1.42438 5.47163 1.38394C5.45045 1.34351 5.41859 1.30966 5.37952 1.28606C5.34045 1.26246 5.29565 1.25002 5.25001 1.2501Z" fill="#667085"/>
</g>
<defs>
<clipPath id="clip0_175_21634">
<rect width="6" height="6" fill="white" transform="translate(6 6) rotate(180)"/>
</clipPath>
</defs>
</svg>
