<svg width="22" height="22" viewBox="0 0 22 22" fill="none" xmlns="http://www.w3.org/2000/svg">
<path d="M16.7936 7.07088C16.057 7.07088 15.4309 6.81308 14.9153 6.29748C14.3997 5.78188 14.1419 5.1558 14.1419 4.41923C14.1419 3.68266 14.3997 3.05657 14.9153 2.54098C15.4309 2.02538 16.057 1.76758 16.7936 1.76758C17.5302 1.76758 18.1562 2.02538 18.6719 2.54098C19.1874 3.05657 19.4452 3.68266 19.4452 4.41923C19.4452 5.1558 19.1874 5.78188 18.6719 6.29748C18.1562 6.81308 17.5302 7.07088 16.7936 7.07088ZM3.53535 17.6775C3.04921 17.6775 2.63305 17.5044 2.28686 17.1582C1.94067 16.812 1.76758 16.3958 1.76758 15.9097V5.30311C1.76758 4.81698 1.94067 4.40081 2.28686 4.05463C2.63305 3.70844 3.04921 3.53535 3.53535 3.53535H12.4626C12.4036 3.82997 12.3742 4.1246 12.3742 4.41923C12.3742 4.71386 12.4036 5.00848 12.4626 5.30311C12.5657 5.77452 12.7351 6.21278 12.9708 6.61789C13.2065 7.023 13.4938 7.38024 13.8326 7.6896L10.6064 9.72253L3.53535 5.30311V7.07088L10.6064 11.4903L15.2689 8.57348C15.5193 8.66187 15.7698 8.72816 16.0202 8.77236C16.2706 8.81655 16.5284 8.83865 16.7936 8.83865C17.265 8.83865 17.729 8.76499 18.1857 8.61767C18.6424 8.47036 19.0622 8.24939 19.4452 7.95476V15.9097C19.4452 16.3958 19.2722 16.812 18.926 17.1582C18.5798 17.5044 18.1636 17.6775 17.6775 17.6775H3.53535Z" fill="#E6E0E9"/>
</svg>
