<svg width="20" height="23" viewBox="0 0 20 23" fill="none" xmlns="http://www.w3.org/2000/svg">
<g clip-path="url(#clip0_1331_15898)">
<path d="M16.6157 7.49997H17.5007C17.9427 7.49997 18.3666 7.69751 18.6792 8.04914C18.9917 8.40077 19.1673 8.87769 19.1673 9.37497V13.125C19.1673 13.6222 18.9917 14.0992 18.6792 14.4508C18.3666 14.8024 17.9427 15 17.5007 15H16.6157C16.4125 16.8124 15.6284 18.4792 14.4104 19.6875C13.1925 20.8957 11.6245 21.5624 10.0007 21.5625V19.6875C11.3267 19.6875 12.5985 19.0948 13.5362 18.0399C14.4739 16.9851 15.0007 15.5543 15.0007 14.0625V8.43747C15.0007 6.94563 14.4739 5.51488 13.5362 4.45999C12.5985 3.4051 11.3267 2.81247 10.0007 2.81247C8.67457 2.81247 7.4028 3.4051 6.46512 4.45999C5.52744 5.51488 5.00065 6.94563 5.00065 8.43747V15H2.50065C2.05862 15 1.6347 14.8024 1.32214 14.4508C1.00958 14.0992 0.833984 13.6222 0.833984 13.125V9.37497C0.833984 8.87769 1.00958 8.40077 1.32214 8.04914C1.6347 7.69751 2.05862 7.49997 2.50065 7.49997H3.38565C3.58901 5.68768 4.37322 4.02116 5.59113 2.8131C6.80904 1.60504 8.37695 0.938477 10.0007 0.938477C11.6244 0.938477 13.1923 1.60504 14.4102 2.8131C15.6281 4.02116 16.4123 5.68768 16.6157 7.49997ZM2.50065 9.37497V13.125H3.33398V9.37497H2.50065ZM16.6673 9.37497V13.125H17.5007V9.37497H16.6673ZM6.46732 14.7984L7.35065 13.2084C8.14488 13.7681 9.06346 14.0642 10.0007 14.0625C10.9378 14.0642 11.8564 13.7681 12.6507 13.2084L13.534 14.7984C12.475 15.5448 11.2503 15.9396 10.0007 15.9375C8.75103 15.9396 7.52627 15.5448 6.46732 14.7984Z" fill="white"/>
</g>
<defs>
<clipPath id="clip0_1331_15898">
<rect width="20" height="22.5" fill="white"/>
</clipPath>
</defs>
</svg>
