<svg width="19" height="19" viewBox="0 0 19 19" fill="none" xmlns="http://www.w3.org/2000/svg">
<path d="M14.8086 18.9453H4.13676C1.85574 18.9453 0 17.0896 0 14.8086V4.13676C0 1.85574 1.85574 0 4.13676 0H14.8086C17.0896 0 18.9453 1.85574 18.9453 4.13676V14.8086C18.9453 17.0896 17.0896 18.9453 14.8086 18.9453ZM4.13676 0.976562C2.39422 0.976562 0.976562 2.39422 0.976562 4.13676V14.8086C0.976562 16.5511 2.39422 17.9688 4.13676 17.9688H14.8086C16.5511 17.9688 17.9688 16.5511 17.9688 14.8086V4.13676C17.9688 2.39422 16.5511 0.976562 14.8086 0.976562H4.13676ZM9.47266 15.6526C6.06504 15.6526 3.29273 12.8803 3.29273 9.47266C3.29273 6.06504 6.06504 3.29273 9.47266 3.29273C12.8803 3.29273 15.6526 6.06504 15.6526 9.47266C15.6526 12.8803 12.8803 15.6526 9.47266 15.6526ZM9.47266 4.2693C6.60352 4.2693 4.2693 6.60352 4.2693 9.47266C4.2693 12.3418 6.60352 14.676 9.47266 14.676C12.3418 14.676 14.676 12.3418 14.676 9.47266C14.676 6.60352 12.3418 4.2693 9.47266 4.2693ZM15.2948 5.20246C14.4431 5.20246 13.7502 4.50957 13.7502 3.65789C13.7502 2.80621 14.4431 2.11332 15.2948 2.11332C16.1464 2.11332 16.8393 2.80621 16.8393 3.65789C16.8393 4.50957 16.1464 5.20246 15.2948 5.20246ZM15.2948 3.08992C14.9816 3.08992 14.7268 3.34473 14.7268 3.65793C14.7268 3.97113 14.9816 4.22594 15.2948 4.22594C15.608 4.22594 15.8628 3.97113 15.8628 3.65793C15.8628 3.34473 15.608 3.08992 15.2948 3.08992Z" fill="white"/>
</svg>
