<svg width="20" height="20" viewBox="0 0 20 20" fill="none" xmlns="http://www.w3.org/2000/svg">
<path d="M10 2.5H4.16667C3.72464 2.5 3.30072 2.67559 2.98816 2.98816C2.67559 3.30072 2.5 3.72464 2.5 4.16667V15.8333C2.5 16.2754 2.67559 16.6993 2.98816 17.0118C3.30072 17.3244 3.72464 17.5 4.16667 17.5H15.8333C16.2754 17.5 16.6993 17.3244 17.0118 17.0118C17.3244 16.6993 17.5 16.2754 17.5 15.8333V10" stroke="#4E37FB" stroke-width="1.66667" stroke-linecap="round" stroke-linejoin="round"/>
<path d="M15.3127 2.18751C15.6443 1.85599 16.0939 1.66974 16.5627 1.66974C17.0316 1.66974 17.4812 1.85599 17.8127 2.18751C18.1443 2.51903 18.3305 2.96866 18.3305 3.43751C18.3305 3.90635 18.1443 4.35598 17.8127 4.68751L10.3019 12.1992C10.104 12.3969 9.85958 12.5416 9.59107 12.62L7.19691 13.32C7.1252 13.3409 7.04919 13.3422 6.97683 13.3236C6.90447 13.3051 6.83843 13.2675 6.78561 13.2146C6.7328 13.1618 6.69515 13.0958 6.67661 13.0234C6.65807 12.9511 6.65933 12.875 6.68024 12.8033L7.38024 10.4092C7.45901 10.1409 7.60402 9.89672 7.80191 9.69917L15.3127 2.18751Z" stroke="#4E37FB" stroke-width="1.66667" stroke-linecap="round" stroke-linejoin="round"/>
</svg>
