<svg width="20" height="20" viewBox="0 0 20 20" fill="none" xmlns="http://www.w3.org/2000/svg">
<path d="M12.3235 7.85711C12.7497 7.85711 13.1585 8.02643 13.4599 8.32783C13.7613 8.62923 13.9306 9.03801 13.9306 9.46425V13.9278C13.9306 14.9699 13.5166 15.9694 12.7797 16.7062C12.0428 17.4431 11.0434 17.8571 10.0013 17.8571C8.9592 17.8571 7.95977 17.4431 7.22288 16.7062C6.486 15.9694 6.07202 14.9699 6.07202 13.9278V9.46425C6.07202 9.03801 6.24134 8.62923 6.54274 8.32783C6.84414 8.02643 7.25292 7.85711 7.67916 7.85711H12.3235ZM12.3235 8.92854H7.67916C7.53708 8.92854 7.40082 8.98498 7.30036 9.08544C7.19989 9.18591 7.14345 9.32217 7.14345 9.46425V13.9278C7.14345 14.6858 7.44454 15.4127 7.9805 15.9486C8.51645 16.4846 9.24336 16.7857 10.0013 16.7857C10.7593 16.7857 11.4862 16.4846 12.0221 15.9486C12.5581 15.4127 12.8592 14.6858 12.8592 13.9278V9.46425C12.8592 9.32217 12.8027 9.18591 12.7023 9.08544C12.6018 8.98498 12.4655 8.92854 12.3235 8.92854ZM3.03488 7.85711H6.00345C5.71659 8.15562 5.51507 8.52563 5.41988 8.92854H3.03488C2.8928 8.92854 2.75654 8.98498 2.65607 9.08544C2.55561 9.18591 2.49916 9.32217 2.49916 9.46425V13.2135C2.49888 13.572 2.58853 13.9248 2.7599 14.2397C2.93127 14.5545 3.17889 14.8213 3.48008 15.0157C3.78127 15.2101 4.12641 15.3258 4.48389 15.3522C4.84138 15.3787 5.19979 15.315 5.52631 15.1671C5.62131 15.5171 5.75774 15.85 5.92916 16.1614C5.4398 16.3753 4.90485 16.4638 4.37267 16.4191C3.8405 16.3743 3.32785 16.1977 2.88107 15.9051C2.43429 15.6125 2.06746 15.2132 1.81371 14.7433C1.55997 14.2733 1.42731 13.7476 1.42774 13.2135V9.46425C1.42774 9.03801 1.59706 8.62923 1.89846 8.32783C2.19985 8.02643 2.60864 7.85711 3.03488 7.85711ZM16.9635 7.85711C17.3897 7.85711 17.7985 8.02643 18.0999 8.32783C18.4013 8.62923 18.5706 9.03801 18.5706 9.46425V13.2143C18.5708 13.7479 18.4381 14.2733 18.1845 14.7429C17.931 15.2125 17.5644 15.6115 17.118 15.904C16.6717 16.1965 16.1595 16.3733 15.6277 16.4184C15.0959 16.4634 14.5613 16.3753 14.072 16.1621L14.112 16.0893C14.2649 15.7993 14.3885 15.4914 14.477 15.1685C14.8034 15.3154 15.1613 15.3782 15.5182 15.3511C15.875 15.3241 16.2194 15.2081 16.5199 15.0138C16.8204 14.8195 17.0675 14.553 17.2385 14.2386C17.4096 13.9243 17.4992 13.5721 17.4992 13.2143V9.46425C17.4992 9.32229 17.4428 9.18614 17.3425 9.0857C17.2422 8.98525 17.1061 8.92873 16.9642 8.92854H14.5835C14.4881 8.52555 14.2863 8.15554 13.9992 7.85711H16.9635ZM9.99916 2.14282C10.3275 2.14282 10.6526 2.20749 10.9559 2.33312C11.2592 2.45876 11.5348 2.64291 11.7669 2.87506C11.9991 3.1072 12.1832 3.3828 12.3089 3.68611C12.4345 3.98943 12.4992 4.31452 12.4992 4.64282C12.4992 4.97113 12.4345 5.29622 12.3089 5.59953C12.1832 5.90285 11.9991 6.17844 11.7669 6.41059C11.5348 6.64274 11.2592 6.82688 10.9559 6.95252C10.6526 7.07816 10.3275 7.14282 9.99916 7.14282C9.33612 7.14282 8.70024 6.87943 8.2314 6.41059C7.76256 5.94175 7.49916 5.30586 7.49916 4.64282C7.49916 3.97978 7.76256 3.3439 8.2314 2.87506C8.70024 2.40621 9.33612 2.14282 9.99916 2.14282ZM15.7156 2.85711C15.997 2.85711 16.2756 2.91253 16.5356 3.02022C16.7956 3.12791 17.0318 3.28575 17.2308 3.48474C17.4298 3.68372 17.5876 3.91995 17.6953 4.17993C17.803 4.43991 17.8585 4.71856 17.8585 4.99997C17.8585 5.28137 17.803 5.56002 17.6953 5.82C17.5876 6.07998 17.4298 6.31621 17.2308 6.51519C17.0318 6.71418 16.7956 6.87202 16.5356 6.97971C16.2756 7.0874 15.997 7.14282 15.7156 7.14282C15.1473 7.14282 14.6022 6.91706 14.2004 6.51519C13.7985 6.11333 13.5727 5.56829 13.5727 4.99997C13.5727 4.43164 13.7985 3.8866 14.2004 3.48474C14.6022 3.08287 15.1473 2.85711 15.7156 2.85711ZM4.28274 2.85711C4.56414 2.85711 4.84279 2.91253 5.10277 3.02022C5.36276 3.12791 5.59898 3.28575 5.79796 3.48474C5.99695 3.68372 6.15479 3.91995 6.26248 4.17993C6.37017 4.43991 6.42559 4.71856 6.42559 4.99997C6.42559 5.28137 6.37017 5.56002 6.26248 5.82C6.15479 6.07998 5.99695 6.31621 5.79796 6.51519C5.59898 6.71418 5.36276 6.87202 5.10277 6.97971C4.84279 7.0874 4.56414 7.14282 4.28274 7.14282C3.71441 7.14282 3.16937 6.91706 2.76751 6.51519C2.36564 6.11333 2.13988 5.56829 2.13988 4.99997C2.13988 4.43164 2.36564 3.8866 2.76751 3.48474C3.16937 3.08287 3.71441 2.85711 4.28274 2.85711ZM9.99916 3.21425C9.62028 3.21425 9.25692 3.36476 8.98901 3.63267C8.7211 3.90058 8.57059 4.26394 8.57059 4.64282C8.57059 5.0217 8.7211 5.38507 8.98901 5.65297C9.25692 5.92088 9.62028 6.07139 9.99916 6.07139C10.378 6.07139 10.7414 5.92088 11.0093 5.65297C11.2772 5.38507 11.4277 5.0217 11.4277 4.64282C11.4277 4.26394 11.2772 3.90058 11.0093 3.63267C10.7414 3.36476 10.378 3.21425 9.99916 3.21425ZM15.7156 3.92854C15.5749 3.92854 15.4356 3.95625 15.3056 4.01009C15.1756 4.06394 15.0575 4.14286 14.958 4.24235C14.8585 4.34184 14.7796 4.45996 14.7257 4.58995C14.6719 4.71994 14.6442 4.85926 14.6442 4.99997C14.6442 5.14067 14.6719 5.27999 14.7257 5.40998C14.7796 5.53997 14.8585 5.65809 14.958 5.75758C15.0575 5.85707 15.1756 5.93599 15.3056 5.98984C15.4356 6.04368 15.5749 6.07139 15.7156 6.07139C15.9998 6.07139 16.2723 5.95851 16.4732 5.75758C16.6741 5.55665 16.787 5.28413 16.787 4.99997C16.787 4.7158 16.6741 4.44328 16.4732 4.24235C16.2723 4.04142 15.9998 3.92854 15.7156 3.92854ZM4.28274 3.92854C4.14203 3.92854 4.00271 3.95625 3.87272 4.01009C3.74273 4.06394 3.62461 4.14286 3.52512 4.24235C3.42563 4.34184 3.34671 4.45996 3.29286 4.58995C3.23902 4.71994 3.21131 4.85926 3.21131 4.99997C3.21131 5.14067 3.23902 5.27999 3.29286 5.40998C3.34671 5.53997 3.42563 5.65809 3.52512 5.75758C3.62461 5.85707 3.74273 5.93599 3.87272 5.98984C4.00271 6.04368 4.14203 6.07139 4.28274 6.07139C4.5669 6.07139 4.83942 5.95851 5.04035 5.75758C5.24128 5.55665 5.35416 5.28413 5.35416 4.99997C5.35416 4.7158 5.24128 4.44328 5.04035 4.24235C4.83942 4.04142 4.5669 3.92854 4.28274 3.92854Z" fill="white"/>
</svg>
