<svg width="20" height="20" viewBox="0 0 20 20" fill="none" xmlns="http://www.w3.org/2000/svg">
<path fill-rule="evenodd" clip-rule="evenodd" d="M17.8786 4.51339C17.9578 4.63357 17.993 4.77738 17.9785 4.92055C17.9639 5.06372 17.9004 5.19748 17.7986 5.29923L10.1378 12.9592C10.0594 13.0375 9.9616 13.0936 9.85442 13.1217L6.66359 13.9551C6.55812 13.9826 6.44728 13.982 6.34208 13.9535C6.23689 13.9249 6.14099 13.8693 6.06392 13.7922C5.98684 13.7152 5.93126 13.6193 5.9027 13.5141C5.87414 13.4089 5.87358 13.298 5.90109 13.1926L6.73442 10.0026C6.75934 9.90703 6.80517 9.81822 6.86859 9.74256L14.5578 2.05839C14.6749 1.94135 14.8338 1.87561 14.9994 1.87561C15.165 1.87561 15.3239 1.94135 15.4411 2.05839L17.7986 4.41506C17.8277 4.44576 17.8545 4.47863 17.8786 4.51339ZM16.4728 4.85673L14.9994 3.38423L7.90109 10.4826L7.38026 12.4767L9.37442 11.9559L16.4728 4.85673Z" fill="black"/>
<path d="M16.3682 14.2999C16.5959 12.3532 16.6687 10.3915 16.5857 8.43328C16.5837 8.38712 16.5914 8.34107 16.6081 8.29803C16.6249 8.25499 16.6505 8.21592 16.6832 8.18328L17.5032 7.36328C17.5256 7.34074 17.554 7.32516 17.5851 7.3184C17.6161 7.31163 17.6485 7.31398 17.6782 7.32516C17.7079 7.33634 17.7338 7.35587 17.7527 7.3814C17.7717 7.40694 17.7828 7.4374 17.7848 7.46911C17.9387 9.79515 17.8802 12.1304 17.6098 14.4458C17.4132 16.1308 16.0598 17.4516 14.3823 17.6391C11.4701 17.9614 8.53122 17.9614 5.619 17.6391C3.94233 17.4516 2.58816 16.1308 2.3915 14.4458C2.04658 11.4919 2.04658 8.50796 2.3915 5.55411C2.58816 3.86911 3.9415 2.54828 5.619 2.36078C7.82937 2.11665 10.0563 2.05728 12.2765 2.18328C12.3083 2.18556 12.3387 2.1969 12.3643 2.21595C12.3898 2.23501 12.4093 2.26098 12.4205 2.29079C12.4318 2.32061 12.4342 2.35301 12.4276 2.38417C12.421 2.41533 12.4055 2.44394 12.3832 2.46661L11.5557 3.29328C11.5233 3.32565 11.4846 3.35101 11.4421 3.36778C11.3995 3.38456 11.3539 3.39238 11.3082 3.39078C9.45546 3.32732 7.60059 3.39834 5.75816 3.60328C5.21978 3.66287 4.7172 3.90221 4.33162 4.28265C3.94604 4.66309 3.69997 5.16241 3.63316 5.69994C3.29888 8.55686 3.29888 11.443 3.63316 14.2999C3.69997 14.8375 3.94604 15.3368 4.33162 15.7172C4.7172 16.0977 5.21978 16.337 5.75816 16.3966C8.554 16.7091 11.4473 16.7091 14.244 16.3966C14.7824 16.337 15.285 16.0977 15.6705 15.7172C16.0561 15.3368 16.3014 14.8375 16.3682 14.2999Z" fill="black"/>
</svg>
