<svg width="20" height="20" viewBox="0 0 20 20" fill="none" xmlns="http://www.w3.org/2000/svg">
<path d="M8.46177 12.3107L8.45427 12.2932C8.3416 12.2624 8.22989 12.2283 8.11927 12.1907L8.11094 12.1874C6.95974 11.7935 5.96051 11.0496 5.25312 10.0596C4.54574 9.06966 4.1656 7.88329 4.16594 6.66658C4.16557 5.17333 4.73786 3.73681 5.76493 2.65288C6.792 1.56895 8.19564 0.920174 9.68674 0.840172C11.1778 0.76017 12.6428 1.25504 13.78 2.22285C14.9172 3.19065 15.6399 4.5577 15.7993 6.04241C15.8359 6.38574 15.5526 6.66658 15.2076 6.66658C14.8626 6.66658 14.5868 6.38491 14.5409 6.04324C14.4301 5.2368 14.1065 4.47442 13.6035 3.83445C13.1004 3.19448 12.436 2.70001 11.6785 2.40185C10.9211 2.10369 10.0979 2.01261 9.29358 2.13795C8.48926 2.2633 7.73283 2.60056 7.10202 3.11507C6.47122 3.62957 5.98879 4.30277 5.70432 5.06547C5.41986 5.82817 5.34361 6.65287 5.48342 7.45479C5.62323 8.25672 5.97406 9.00696 6.49984 9.62839C7.02563 10.2498 7.7074 10.7201 8.4751 10.9907C8.62975 10.6412 8.89986 10.3554 9.24015 10.1813C9.58045 10.0072 9.97024 9.95536 10.3442 10.0345C10.7182 10.1136 11.0536 10.3188 11.2942 10.6158C11.5349 10.9128 11.6661 11.2835 11.6659 11.6657C11.6659 12.1641 11.4476 12.6107 11.1018 12.9157C10.7974 13.1846 10.4054 13.333 9.99927 13.3332C9.6705 13.3344 9.34881 13.2378 9.07505 13.0558C8.80129 12.8737 8.58782 12.6144 8.46177 12.3107ZM6.66344 12.9166C6.04924 12.5884 5.4868 12.1714 4.99427 11.6791C4.53772 11.7322 4.11658 11.9511 3.81086 12.2944C3.50514 12.6376 3.33613 13.0811 3.33594 13.5407V14.0224C3.33594 14.7657 3.60094 15.4857 4.08427 16.0516C5.38927 17.5799 7.3776 18.3349 9.99927 18.3349C12.6209 18.3349 14.6101 17.5799 15.9176 16.0516C16.4021 15.4855 16.6684 14.765 16.6684 14.0199V13.5407C16.6684 13.0438 16.4711 12.5671 16.1199 12.2155C15.7686 11.8639 15.2921 11.6662 14.7951 11.6657H12.9159C12.9159 12.1141 12.8159 12.5374 12.6351 12.9157H14.7951C14.9606 12.9162 15.1191 12.9822 15.236 13.0994C15.3528 13.2166 15.4184 13.3753 15.4184 13.5407V14.0199C15.4186 14.4669 15.259 14.8993 14.9684 15.2391C13.9209 16.4624 12.2818 17.0841 9.99927 17.0841C7.71677 17.0841 6.07927 16.4624 5.0351 15.2399C4.74475 14.9004 4.58517 14.4683 4.5851 14.0216V13.5407C4.5851 13.375 4.65095 13.216 4.76816 13.0988C4.88537 12.9816 5.04434 12.9157 5.2101 12.9157L6.66344 12.9166ZM6.66594 6.66658C6.66609 6.09162 6.81496 5.52648 7.09808 5.02606C7.3812 4.52564 7.78895 4.10696 8.2817 3.8107C8.77446 3.51444 9.33546 3.35068 9.91022 3.33532C10.485 3.31996 11.0539 3.45352 11.5618 3.72304C12.0697 3.99256 12.4992 4.38886 12.8086 4.87344C13.1181 5.35802 13.2969 5.91441 13.3278 6.48854C13.3587 7.06266 13.2405 7.63501 12.9848 8.14998C12.7291 8.66494 12.3445 9.105 11.8684 9.42741C11.344 8.98964 10.6824 8.74987 9.99927 8.74991C10.5518 8.74991 11.0817 8.53042 11.4724 8.13972C11.8631 7.74902 12.0826 7.21911 12.0826 6.66658C12.0826 6.11404 11.8631 5.58414 11.4724 5.19344C11.0817 4.80274 10.5518 4.58324 9.99927 4.58324C9.44674 4.58324 8.91683 4.80274 8.52613 5.19344C8.13543 5.58414 7.91594 6.11404 7.91594 6.66658C7.91594 7.21911 8.13543 7.74902 8.52613 8.13972C8.91683 8.53042 9.44674 8.74991 9.99927 8.74991C9.2876 8.74991 8.63594 9.00491 8.13094 9.42741C7.67918 9.12253 7.30929 8.71128 7.05383 8.22986C6.79837 7.74843 6.66516 7.21159 6.66594 6.66658Z" fill="white"/>
</svg>
