<svg width="20" height="20" viewBox="0 0 20 20" fill="none" xmlns="http://www.w3.org/2000/svg">
<path d="M19.9942 8.19961C18.0288 8.20372 16.1116 7.6674 14.5134 6.66641V13.6477C14.5129 14.9407 14.0612 16.2027 13.2188 17.265C12.3764 18.3274 11.1834 19.1393 9.79937 19.5924C8.41534 20.0455 6.90621 20.118 5.47379 19.8003C4.04136 19.4826 2.75392 18.7899 1.78361 17.8147C0.813292 16.8395 0.206359 15.6283 0.0439608 14.3431C-0.118437 13.058 0.171442 11.76 0.874836 10.6229C1.57823 9.48578 2.66161 8.56366 3.98012 7.97983C5.29863 7.39601 6.78941 7.17832 8.25313 7.35586V10.8672C7.58333 10.6828 6.86408 10.6884 6.1981 10.8831C5.53212 11.0777 4.95347 11.4515 4.54478 11.9511C4.13608 12.4507 3.91825 13.0505 3.92239 13.6649C3.92652 14.2793 4.15241 14.8768 4.5678 15.3721C4.9832 15.8675 5.56684 16.2353 6.2354 16.4231C6.90395 16.6109 7.62322 16.609 8.29049 16.4178C8.95777 16.2265 9.53892 15.8557 9.95096 15.3582C10.363 14.8607 10.5848 14.262 10.5848 13.6477V0H14.5134C14.5107 0.290289 14.5385 0.580182 14.5964 0.866016C14.7329 1.50409 15.0168 2.1111 15.4306 2.6499C15.8444 3.1887 16.3795 3.64796 17.0031 3.99961C17.8904 4.51293 18.9306 4.78652 19.9942 4.78633V8.19961Z" fill="white"/>
</svg>
