<svg width="17" height="16" viewBox="0 0 17 16" fill="none" xmlns="http://www.w3.org/2000/svg">
<path fill-rule="evenodd" clip-rule="evenodd" d="M2.06919 0.661081C3.08336 -0.347253 4.75336 -0.168086 5.60252 0.966914L6.65419 2.37025C7.34586 3.29358 7.28419 4.58358 6.46336 5.39941L6.26502 5.59775C6.24253 5.681 6.24025 5.76843 6.25836 5.85275C6.31086 6.19275 6.59502 6.91275 7.78502 8.09608C8.97502 9.27941 9.70002 9.56275 10.045 9.61608C10.132 9.63356 10.2217 9.631 10.3075 9.60858L10.6475 9.27025C11.3775 8.54525 12.4975 8.40941 13.4009 8.90025L14.9925 9.76691C16.3567 10.5069 16.7009 12.3602 15.5842 13.4711L14.4 14.6477C14.0267 15.0186 13.525 15.3277 12.9134 15.3852C11.405 15.5261 7.89086 15.3461 4.19669 11.6736C0.749189 8.24525 0.0875225 5.25525 0.00335584 3.78191C-0.0383108 3.03691 0.313356 2.40691 0.761689 1.96191L2.06919 0.661081ZM4.60252 1.71608C4.18002 1.15191 3.39336 1.10691 2.95002 1.54775L1.64169 2.84775C1.36669 3.12108 1.23502 3.42275 1.25169 3.71108C1.31836 4.88191 1.85169 7.57941 5.07836 10.7877C8.46336 14.1527 11.5892 14.2536 12.7975 14.1402C13.0442 14.1177 13.2892 13.9894 13.5184 13.7619L14.7017 12.5844C15.1834 12.1061 15.0775 11.2344 14.3959 10.8644L12.8042 9.99858C12.3642 9.76025 11.8492 9.83858 11.5292 10.1569L11.15 10.5344L10.7084 10.0911C11.15 10.5344 11.1492 10.5352 11.1484 10.5352L11.1475 10.5369L11.145 10.5394L11.1392 10.5444L11.1267 10.5561C11.0915 10.5887 11.0536 10.6183 11.0134 10.6444C10.9467 10.6886 10.8584 10.7377 10.7475 10.7786C10.5225 10.8627 10.2242 10.9077 9.85586 10.8511C9.13336 10.7402 8.17586 10.2477 6.90336 8.98275C5.63169 7.71775 5.13502 6.76608 5.02336 6.04441C4.96586 5.67608 5.01169 5.37775 5.09669 5.15275C5.14347 5.02614 5.21045 4.90794 5.29502 4.80275L5.32169 4.77358L5.33336 4.76108L5.33836 4.75608L5.34086 4.75358L5.34252 4.75191L5.58252 4.51358C5.93919 4.15775 5.98919 3.56858 5.65336 3.11941L4.60252 1.71608Z" fill="white"/>
</svg>
