<svg width="20" height="20" viewBox="0 0 20 20" fill="none" xmlns="http://www.w3.org/2000/svg">
<path d="M19.5821 5.18613C19.3522 4.32559 18.6745 3.64797 17.814 3.41797C16.2541 3 10 3 10 3C10 3 3.74582 3 2.18598 3.41797C1.32559 3.64797 0.647812 4.32559 0.417852 5.18613C0 6.74582 0 10.0001 0 10.0001C0 10.0001 0 13.2543 0.417852 14.8139C0.647812 15.6744 1.32559 16.3522 2.18598 16.5822C3.74582 17 10 17 10 17C10 17 16.2541 17 17.814 16.5822C18.6745 16.3522 19.3522 15.6744 19.5821 14.8139C20 13.2543 20 10.0001 20 10.0001C20 10.0001 20 6.74582 19.5821 5.18613ZM7.99988 13.0002V7.00004L13.1959 10.0001L7.99988 13.0002Z" fill="white"/>
</svg>
