<svg width="20" height="20" viewBox="0 0 20 20" fill="none" xmlns="http://www.w3.org/2000/svg">
<path d="M5.97565 2.70825H10.6923C11.1382 2.70825 11.509 2.70825 11.8132 2.73325C12.1298 2.75825 12.4265 2.81492 12.7073 2.95825C13.1386 3.17798 13.4893 3.52862 13.709 3.95992C13.8523 4.24075 13.909 4.53742 13.934 4.85408C13.959 5.15825 13.959 5.52909 13.959 5.97492V8.54158C13.959 8.70735 13.8931 8.86632 13.7759 8.98353C13.6587 9.10074 13.4997 9.16658 13.334 9.16658C13.1682 9.16658 13.0093 9.10074 12.892 8.98353C12.7748 8.86632 12.709 8.70735 12.709 8.54158V5.99992C12.709 5.52325 12.709 5.20242 12.6882 4.95575C12.669 4.71659 12.634 4.60242 12.5957 4.52742C12.4959 4.33122 12.3367 4.17165 12.1407 4.07159C12.0648 4.03325 11.9507 3.99825 11.7115 3.97909C11.4648 3.95909 11.1448 3.95825 10.6673 3.95825H6.00065C5.52398 3.95825 5.20315 3.95825 4.95648 3.97909C4.71732 3.99825 4.60315 4.03325 4.52815 4.07159C4.33183 4.17151 4.17224 4.3311 4.07232 4.52742C4.03398 4.60242 3.99898 4.71659 3.97982 4.95575C3.95982 5.20242 3.95898 5.52242 3.95898 5.99992V13.9999C3.95898 14.4766 3.95898 14.7974 3.97982 15.0433C3.99898 15.2833 4.03398 15.3974 4.07232 15.4724C4.16732 15.6583 4.31398 15.8108 4.49565 15.9108C4.50898 15.9141 4.53843 15.9194 4.58398 15.9266C4.68121 15.941 4.81343 15.9544 4.98065 15.9666C5.31232 15.9916 5.73898 16.0083 6.19232 16.0191C7.09648 16.0416 8.07565 16.0416 8.54232 16.0416C8.70808 16.0416 8.86705 16.1074 8.98426 16.2246C9.10147 16.3419 9.16732 16.5008 9.16732 16.6666C9.16732 16.8323 9.10147 16.9913 8.98426 17.1085C8.86705 17.2257 8.70808 17.2916 8.54232 17.2916H8.54065C8.07398 17.2916 7.08232 17.2916 6.16148 17.2691C5.73694 17.2603 5.31266 17.2417 4.88898 17.2133C4.72593 17.2026 4.56332 17.1859 4.40148 17.1633C4.2489 17.1455 4.09994 17.1045 3.95982 17.0416C3.52909 16.8222 3.17878 16.4721 2.95898 16.0416C2.81565 15.7599 2.75898 15.4633 2.73398 15.1466C2.70898 14.8424 2.70898 14.4716 2.70898 14.0258V5.97492C2.70898 5.52909 2.70898 5.15825 2.73398 4.85408C2.75898 4.53742 2.81565 4.24075 2.95898 3.95992C3.17871 3.52862 3.52936 3.17798 3.96065 2.95825C4.24148 2.81492 4.53815 2.75825 4.85482 2.73325C5.15898 2.70825 5.52982 2.70825 5.97565 2.70825Z" fill="white"/>
<path d="M11.9752 10.2083H15.5235C15.8527 10.2083 16.1368 10.2083 16.371 10.2274C16.6185 10.2474 16.8643 10.2924 17.1002 10.4124C17.4535 10.5924 17.7402 10.8791 17.9202 11.2324C18.0402 11.4683 18.0852 11.7141 18.1052 11.9616C18.1243 12.1949 18.1243 12.4799 18.1243 12.8091V14.6908C18.1243 15.0199 18.1243 15.3041 18.1052 15.5383C18.0923 15.7911 18.0294 16.039 17.9202 16.2674C17.7406 16.6204 17.4538 16.9075 17.101 17.0874C16.8643 17.2074 16.6177 17.2524 16.371 17.2724C16.1377 17.2916 15.8527 17.2916 15.5235 17.2916H11.9743C11.6452 17.2916 11.361 17.2916 11.1268 17.2724C10.874 17.2595 10.6261 17.1966 10.3977 17.0874C10.0447 16.9078 9.75764 16.6211 9.57768 16.2683C9.46835 16.0395 9.40547 15.7914 9.39268 15.5383C9.37352 15.3049 9.37352 15.0199 9.37352 14.6908V12.8083C9.37352 12.4791 9.37352 12.1949 9.39268 11.9608C9.40558 11.7079 9.46845 11.46 9.57768 11.2316C9.7575 10.8785 10.0446 10.5914 10.3977 10.4116C10.6261 10.3024 10.874 10.2395 11.1268 10.2266C11.3602 10.2074 11.6452 10.2074 11.9743 10.2074M11.2285 11.4724C11.0585 11.4866 10.9952 11.5099 10.9643 11.5258C10.8471 11.5856 10.7517 11.681 10.6918 11.7983C10.6752 11.8299 10.6527 11.8924 10.6385 12.0624L10.6368 12.0824H16.8602L16.8585 12.0624C16.8443 11.8924 16.821 11.8291 16.8052 11.7983C16.7451 11.6809 16.6494 11.5855 16.5318 11.5258C16.501 11.5091 16.4385 11.4866 16.2685 11.4724C16.0121 11.4583 15.7553 11.4533 15.4985 11.4574H11.9985C11.6385 11.4574 11.4052 11.4574 11.2285 11.4724ZM16.8743 13.7499H10.6243V14.6666C10.6243 15.0266 10.6243 15.2599 10.6393 15.4366C10.6535 15.6066 10.6768 15.6699 10.6927 15.6999C10.7524 15.8175 10.8478 15.9132 10.9652 15.9733C10.9968 15.9899 11.0593 16.0124 11.2293 16.0266C11.406 16.0408 11.6393 16.0416 11.9993 16.0416H15.4993C15.8593 16.0416 16.0927 16.0416 16.2693 16.0266C16.4393 16.0124 16.5027 15.9891 16.5327 15.9733C16.6504 15.9133 16.7461 15.8176 16.806 15.6999C16.8227 15.6691 16.8452 15.6066 16.8593 15.4366C16.8735 15.2599 16.8743 15.0266 16.8743 14.6666V13.7499ZM5.41602 5.20825C5.25026 5.20825 5.09128 5.2741 4.97407 5.39131C4.85686 5.50852 4.79102 5.66749 4.79102 5.83325C4.79102 5.99901 4.85686 6.15798 4.97407 6.27519C5.09128 6.3924 5.25026 6.45825 5.41602 6.45825H8.74935C8.91511 6.45825 9.07408 6.3924 9.19129 6.27519C9.3085 6.15798 9.37435 5.99901 9.37435 5.83325C9.37435 5.66749 9.3085 5.50852 9.19129 5.39131C9.07408 5.2741 8.91511 5.20825 8.74935 5.20825H5.41602ZM4.79102 8.33325C4.79102 8.16749 4.85686 8.00852 4.97407 7.89131C5.09128 7.7741 5.25026 7.70825 5.41602 7.70825H11.2493C11.4151 7.70825 11.5741 7.7741 11.6913 7.89131C11.8085 8.00852 11.8743 8.16749 11.8743 8.33325C11.8743 8.49901 11.8085 8.65798 11.6913 8.77519C11.5741 8.8924 11.4151 8.95825 11.2493 8.95825H5.41602C5.25026 8.95825 5.09128 8.8924 4.97407 8.77519C4.85686 8.65798 4.79102 8.49901 4.79102 8.33325ZM5.41602 10.2083C5.25026 10.2083 5.09128 10.2741 4.97407 10.3913C4.85686 10.5085 4.79102 10.6675 4.79102 10.8333C4.79102 10.999 4.85686 11.158 4.97407 11.2752C5.09128 11.3924 5.25026 11.4583 5.41602 11.4583H8.33268C8.49844 11.4583 8.65741 11.3924 8.77462 11.2752C8.89183 11.158 8.95768 10.999 8.95768 10.8333C8.95768 10.6675 8.89183 10.5085 8.77462 10.3913C8.65741 10.2741 8.49844 10.2083 8.33268 10.2083H5.41602ZM4.79102 14.1666C4.79102 14.0008 4.85686 13.8419 4.97407 13.7246C5.09128 13.6074 5.25026 13.5416 5.41602 13.5416H7.08268C7.24844 13.5416 7.40741 13.6074 7.52462 13.7246C7.64183 13.8419 7.70768 14.0008 7.70768 14.1666C7.70768 14.3323 7.64183 14.4913 7.52462 14.6085C7.40741 14.7257 7.24844 14.7916 7.08268 14.7916H5.41602C5.25026 14.7916 5.09128 14.7257 4.97407 14.6085C4.85686 14.4913 4.79102 14.3323 4.79102 14.1666Z" fill="white"/>
</svg>
