<svg width="20" height="20" viewBox="0 0 20 20" fill="none" xmlns="http://www.w3.org/2000/svg">
<path fill-rule="evenodd" clip-rule="evenodd" d="M17.8792 4.51327C17.9584 4.63344 17.9937 4.77726 17.9791 4.92043C17.9645 5.0636 17.901 5.19735 17.7992 5.29911L10.1384 12.9591C10.06 13.0374 9.96221 13.0935 9.85503 13.1216L6.6642 13.9549C6.55873 13.9824 6.44789 13.9819 6.3427 13.9533C6.2375 13.9248 6.14161 13.8692 6.06453 13.7921C5.98745 13.715 5.93187 13.6191 5.90331 13.5139C5.87475 13.4087 5.87419 13.2979 5.9017 13.1924L6.73503 10.0024C6.75995 9.90691 6.80578 9.8181 6.8692 9.74244L14.5584 2.05827C14.6756 1.94123 14.8344 1.87549 15 1.87549C15.1657 1.87549 15.3245 1.94123 15.4417 2.05827L17.7992 4.41494C17.8283 4.44564 17.8551 4.47851 17.8792 4.51327ZM16.4734 4.85661L15 3.3841L7.9017 10.4824L7.38087 12.4766L9.37503 11.9558L16.4734 4.85661Z" fill="#4E37FB"/>
<path d="M16.3676 14.3001C16.5953 12.3534 16.6681 10.3916 16.5851 8.4334C16.5831 8.38724 16.5907 8.34119 16.6075 8.29815C16.6243 8.25512 16.6499 8.21604 16.6826 8.1834L17.5026 7.3634C17.525 7.34086 17.5534 7.32528 17.5844 7.31852C17.6155 7.31176 17.6478 7.31411 17.6776 7.32528C17.7073 7.33646 17.7332 7.35599 17.7521 7.38153C17.7711 7.40706 17.7822 7.43752 17.7842 7.46923C17.9381 9.79527 17.8796 12.1305 17.6092 14.4459C17.4126 16.1309 16.0592 17.4517 14.3817 17.6392C11.4695 17.9615 8.53061 17.9615 5.61839 17.6392C3.94172 17.4517 2.58755 16.1309 2.39088 14.4459C2.04597 11.492 2.04597 8.50809 2.39088 5.55423C2.58755 3.86923 3.94089 2.5484 5.61839 2.3609C7.82876 2.11677 10.0556 2.0574 12.2759 2.1834C12.3077 2.18568 12.3381 2.19702 12.3636 2.21607C12.3892 2.23513 12.4087 2.2611 12.4199 2.29091C12.4312 2.32073 12.4336 2.35313 12.427 2.38429C12.4203 2.41545 12.4049 2.44406 12.3826 2.46673L11.5551 3.2934C11.5227 3.32577 11.484 3.35113 11.4414 3.36791C11.3989 3.38468 11.3533 3.39251 11.3076 3.3909C9.45485 3.32744 7.59998 3.39846 5.75755 3.6034C5.21917 3.66299 4.71659 3.90233 4.33101 4.28277C3.94543 4.66321 3.69936 5.16253 3.63255 5.70006C3.29827 8.55699 3.29827 11.4431 3.63255 14.3001C3.69936 14.8376 3.94543 15.3369 4.33101 15.7174C4.71659 16.0978 5.21917 16.3371 5.75755 16.3967C8.55338 16.7092 11.4467 16.7092 14.2434 16.3967C14.7818 16.3371 15.2843 16.0978 15.6699 15.7174C16.0555 15.3369 16.3007 14.8376 16.3676 14.3001Z" fill="#4E37FB"/>
</svg>
