<svg width="20" height="20" viewBox="0 0 20 20" fill="none" xmlns="http://www.w3.org/2000/svg">
<path d="M4.375 6.66659C4.375 6.0588 4.61644 5.4759 5.04621 5.04613C5.47598 4.61636 6.05888 4.37492 6.66667 4.37492C7.27445 4.37492 7.85735 4.61636 8.28712 5.04613C8.71689 5.4759 8.95833 6.0588 8.95833 6.66659C8.95833 7.27437 8.71689 7.85727 8.28712 8.28704C7.85735 8.71681 7.27445 8.95825 6.66667 8.95825C6.05888 8.95825 5.47598 8.71681 5.04621 8.28704C4.61644 7.85727 4.375 7.27437 4.375 6.66659ZM6.66667 3.33325C5.78261 3.33325 4.93477 3.68444 4.30964 4.30956C3.68452 4.93468 3.33333 5.78253 3.33333 6.66659C3.33333 7.55064 3.68452 8.39849 4.30964 9.02361C4.93477 9.64873 5.78261 9.99992 6.66667 9.99992C7.55072 9.99992 8.39857 9.64873 9.02369 9.02361C9.64881 8.39849 10 7.55064 10 6.66659C10 5.78253 9.64881 4.93468 9.02369 4.30956C8.39857 3.68444 7.55072 3.33325 6.66667 3.33325ZM12.7083 7.49992C12.7083 7.11314 12.862 6.74221 13.1355 6.46872C13.409 6.19523 13.7799 6.04159 14.1667 6.04159C14.5534 6.04159 14.9244 6.19523 15.1979 6.46872C15.4714 6.74221 15.625 7.11314 15.625 7.49992C15.625 7.88669 15.4714 8.25763 15.1979 8.53112C14.9244 8.80461 14.5534 8.95825 14.1667 8.95825C13.7799 8.95825 13.409 8.80461 13.1355 8.53112C12.862 8.25763 12.7083 7.88669 12.7083 7.49992ZM14.1667 4.99992C13.5036 4.99992 12.8677 5.26331 12.3989 5.73215C11.9301 6.20099 11.6667 6.83688 11.6667 7.49992C11.6667 8.16296 11.9301 8.79884 12.3989 9.26769C12.8677 9.73653 13.5036 9.99992 14.1667 9.99992C14.8297 9.99992 15.4656 9.73653 15.9344 9.26769C16.4033 8.79884 16.6667 8.16296 16.6667 7.49992C16.6667 6.83688 16.4033 6.20099 15.9344 5.73215C15.4656 5.26331 14.8297 4.99992 14.1667 4.99992ZM14.1667 16.2499C13.26 16.2499 12.5325 16.1033 11.9517 15.8658L12.0292 15.7658C12.235 15.4945 12.3929 15.2228 12.5138 14.9653C12.9388 15.1133 13.4788 15.2083 14.1663 15.2083C15.9479 15.2083 16.7383 14.5695 17.1092 14.0287C17.3204 13.7179 17.4526 13.3604 17.4946 12.987C17.497 12.9626 17.4986 12.9382 17.4996 12.9137V12.8124C17.4996 12.5249 17.2663 12.2916 16.9788 12.2916H12.8596C12.7745 11.9063 12.5948 11.5483 12.3367 11.2499H16.9792C17.3936 11.2499 17.791 11.4145 18.084 11.7076C18.377 12.0006 18.5417 12.398 18.5417 12.8124V12.9362L18.5404 12.972C18.539 13.0014 18.5362 13.0402 18.5321 13.0883C18.473 13.6365 18.2796 14.1617 17.9692 14.6174C17.3754 15.4824 16.2388 16.2499 14.1658 16.2499M2.8125 11.2499C2.3981 11.2499 2.00067 11.4145 1.70765 11.7076C1.41462 12.0006 1.25 12.398 1.25 12.8124V13.3553L1.25167 13.3958C1.25333 13.4291 1.25694 13.4733 1.2625 13.5283C1.27458 13.6374 1.2975 13.7874 1.3425 13.9658C1.46206 14.4354 1.67458 14.8763 1.9675 15.2624C2.69958 16.2274 4.09417 17.0833 6.66667 17.0833C9.23917 17.0833 10.6342 16.2274 11.3654 15.2624C11.6585 14.8762 11.8712 14.4352 11.9908 13.9653C12.0358 13.7874 12.0587 13.6374 12.0708 13.5278C12.077 13.4705 12.0812 13.413 12.0833 13.3553V12.8124C12.0833 12.6072 12.0429 12.404 11.9644 12.2145C11.8859 12.0249 11.7708 11.8527 11.6257 11.7076C11.4806 11.5625 11.3083 11.4474 11.1188 11.3689C10.9292 11.2903 10.726 11.2499 10.5208 11.2499H2.8125ZM2.29208 13.3433L2.29167 13.3299V12.8124C2.29167 12.5249 2.525 12.2916 2.8125 12.2916H10.5208C10.8083 12.2916 11.0417 12.5249 11.0417 12.8124V13.3299L11.0413 13.3433C11.0322 13.467 11.0121 13.5897 10.9812 13.7099C10.8958 14.0444 10.7442 14.3584 10.5354 14.6333C10.0429 15.2833 8.98958 16.0416 6.66667 16.0416C4.34375 16.0416 3.29042 15.2833 2.79792 14.6333C2.58916 14.3585 2.43756 14.0447 2.35208 13.7103C2.32118 13.59 2.3011 13.4672 2.29208 13.3433Z" fill="white"/>
</svg>
