<svg width="44" height="44" viewBox="0 0 44 44" fill="none" xmlns="http://www.w3.org/2000/svg">
<g filter="url(#filter0_d_171_3603)">
<rect x="2" y="1" width="40" height="40" rx="4" fill="#FAF9FF"/>
<rect x="2.5" y="1.5" width="39" height="39" rx="3.5" stroke="#FAF9FF"/>
<path d="M20.4375 15.0625V15.375H23.5625V15.0625C23.5625 14.6481 23.3979 14.2507 23.1049 13.9576C22.8118 13.6646 22.4144 13.5 22 13.5C21.5856 13.5 21.1882 13.6646 20.8951 13.9576C20.6021 14.2507 20.4375 14.6481 20.4375 15.0625ZM19.1875 15.375V15.0625C19.1875 14.3166 19.4838 13.6012 20.0113 13.0738C20.5387 12.5463 21.2541 12.25 22 12.25C22.7459 12.25 23.4613 12.5463 23.9887 13.0738C24.5162 13.6012 24.8125 14.3166 24.8125 15.0625V15.375H29.5C29.6658 15.375 29.8247 15.4408 29.9419 15.5581C30.0592 15.6753 30.125 15.8342 30.125 16C30.125 16.1658 30.0592 16.3247 29.9419 16.4419C29.8247 16.5592 29.6658 16.625 29.5 16.625H28.5575L27.375 26.98C27.2878 27.7426 26.923 28.4465 26.3501 28.9573C25.7772 29.4682 25.0363 29.7504 24.2687 29.75H19.7312C18.9637 29.7504 18.2228 29.4682 17.6499 28.9573C17.077 28.4465 16.7122 27.7426 16.625 26.98L15.4425 16.625H14.5C14.3342 16.625 14.1753 16.5592 14.0581 16.4419C13.9408 16.3247 13.875 16.1658 13.875 16C13.875 15.8342 13.9408 15.6753 14.0581 15.5581C14.1753 15.4408 14.3342 15.375 14.5 15.375H19.1875ZM17.8675 26.8375C17.9197 27.2949 18.1383 27.7172 18.4818 28.0238C18.8253 28.3304 19.2696 28.4999 19.73 28.5H24.2694C24.7298 28.4999 25.1741 28.3304 25.5175 28.0238C25.861 27.7172 26.0797 27.2949 26.1319 26.8375L27.3 16.625H16.7006L17.8675 26.8375ZM20.125 18.8125C20.2908 18.8125 20.4497 18.8783 20.5669 18.9956C20.6842 19.1128 20.75 19.2717 20.75 19.4375V25.6875C20.75 25.8533 20.6842 26.0122 20.5669 26.1294C20.4497 26.2467 20.2908 26.3125 20.125 26.3125C19.9592 26.3125 19.8003 26.2467 19.6831 26.1294C19.5658 26.0122 19.5 25.8533 19.5 25.6875V19.4375C19.5 19.2717 19.5658 19.1128 19.6831 18.9956C19.8003 18.8783 19.9592 18.8125 20.125 18.8125ZM24.5 19.4375C24.5 19.2717 24.4342 19.1128 24.3169 18.9956C24.1997 18.8783 24.0408 18.8125 23.875 18.8125C23.7092 18.8125 23.5503 18.8783 23.4331 18.9956C23.3158 19.1128 23.25 19.2717 23.25 19.4375V25.6875C23.25 25.8533 23.3158 26.0122 23.4331 26.1294C23.5503 26.2467 23.7092 26.3125 23.875 26.3125C24.0408 26.3125 24.1997 26.2467 24.3169 26.1294C24.4342 26.0122 24.5 25.8533 24.5 25.6875V19.4375Z" fill="#FF0A0A"/>
</g>
<defs>
<filter id="filter0_d_171_3603" x="0" y="0" width="44" height="44" filterUnits="userSpaceOnUse" color-interpolation-filters="sRGB">
<feFlood flood-opacity="0" result="BackgroundImageFix"/>
<feColorMatrix in="SourceAlpha" type="matrix" values="0 0 0 0 0 0 0 0 0 0 0 0 0 0 0 0 0 0 127 0" result="hardAlpha"/>
<feOffset dy="1"/>
<feGaussianBlur stdDeviation="1"/>
<feColorMatrix type="matrix" values="0 0 0 0 0.0627451 0 0 0 0 0.0941176 0 0 0 0 0.156863 0 0 0 0.05 0"/>
<feBlend mode="normal" in2="BackgroundImageFix" result="effect1_dropShadow_171_3603"/>
<feBlend mode="normal" in="SourceGraphic" in2="effect1_dropShadow_171_3603" result="shape"/>
</filter>
</defs>
</svg>
