<svg width="20" height="20" viewBox="0 0 20 20" fill="none" xmlns="http://www.w3.org/2000/svg">
<path d="M5.83333 9.99999C5.83333 10.442 5.65774 10.8659 5.34518 11.1785C5.03262 11.4911 4.60869 11.6667 4.16667 11.6667C3.72464 11.6667 3.30072 11.4911 2.98816 11.1785C2.67559 10.8659 2.5 10.442 2.5 9.99999C2.5 9.55797 2.67559 9.13404 2.98816 8.82148C3.30072 8.50892 3.72464 8.33333 4.16667 8.33333C4.60869 8.33333 5.03262 8.50892 5.34518 8.82148C5.65774 9.13404 5.83333 9.55797 5.83333 9.99999ZM11.6667 9.99999C11.6667 10.442 11.4911 10.8659 11.1785 11.1785C10.866 11.4911 10.442 11.6667 10 11.6667C9.55797 11.6667 9.13405 11.4911 8.82149 11.1785C8.50893 10.8659 8.33333 10.442 8.33333 9.99999C8.33333 9.55797 8.50893 9.13404 8.82149 8.82148C9.13405 8.50892 9.55797 8.33333 10 8.33333C10.442 8.33333 10.866 8.50892 11.1785 8.82148C11.4911 9.13404 11.6667 9.55797 11.6667 9.99999ZM17.5 9.99999C17.5 10.442 17.3244 10.8659 17.0118 11.1785C16.6993 11.4911 16.2754 11.6667 15.8333 11.6667C15.3913 11.6667 14.9674 11.4911 14.6548 11.1785C14.3423 10.8659 14.1667 10.442 14.1667 9.99999C14.1667 9.55797 14.3423 9.13404 14.6548 8.82148C14.9674 8.50892 15.3913 8.33333 15.8333 8.33333C16.2754 8.33333 16.6993 8.50892 17.0118 8.82148C17.3244 9.13404 17.5 9.55797 17.5 9.99999Z" fill="#4E37FB"/>
</svg>
