<svg width="6" height="6" viewBox="0 0 6 6" fill="none" xmlns="http://www.w3.org/2000/svg">
<path d="M0.749991 4.7499H5.24999C5.29555 4.74976 5.34021 4.7372 5.37916 4.71356C5.41811 4.68992 5.44988 4.65611 5.47104 4.61577C5.4922 4.57542 5.50196 4.53006 5.49927 4.48458C5.49657 4.4391 5.48152 4.39522 5.45574 4.35765L3.20574 1.10765C3.11249 0.972904 2.88799 0.972904 2.79449 1.10765L0.544491 4.35765C0.518447 4.39514 0.503174 4.43905 0.500332 4.4846C0.49749 4.53016 0.507187 4.57562 0.528369 4.61606C0.549552 4.65649 0.58141 4.69034 0.620482 4.71394C0.659554 4.73754 0.704346 4.74998 0.749991 4.7499Z" fill="#667085"/>
</svg>
